<mxfile host="Electron" modified="2025-09-30T00:27:27.378Z" agent="Mozilla/5.0 (Windows NT 10.0; Win64; x64) AppleWebKit/537.36 (KHTML, like Gecko) draw.io/21.2.1 Chrome/112.0.5615.87 Electron/24.1.2 Safari/537.36" etag="L786xRCRSk6bAhuXQocJ" version="21.2.1" type="device">
  <diagram name="PÃ¡gina-1" id="Sc5Xj4uoRe60JQ0VuM0w">
    <mxGraphModel dx="3316" dy="1182" grid="1" gridSize="10" guides="1" tooltips="1" connect="1" arrows="1" fold="1" page="1" pageScale="1" pageWidth="827" pageHeight="1169" math="0" shadow="0">
      <root>
        <mxCell id="0" />
        <mxCell id="1" parent="0" />
        <mxCell id="6N_2MoYfHgcVI4_fVxiI-11" value="" style="group" vertex="1" connectable="0" parent="1">
          <mxGeometry x="550" y="10" width="97" height="150" as="geometry" />
        </mxCell>
        <mxCell id="6N_2MoYfHgcVI4_fVxiI-12" value="1" style="ellipse;whiteSpace=wrap;html=1;aspect=fixed;fillColor=#FF0000;" vertex="1" parent="6N_2MoYfHgcVI4_fVxiI-11">
          <mxGeometry x="9" width="80" height="80" as="geometry" />
        </mxCell>
        <mxCell id="6N_2MoYfHgcVI4_fVxiI-13" value="4" style="ellipse;whiteSpace=wrap;html=1;aspect=fixed;" vertex="1" parent="6N_2MoYfHgcVI4_fVxiI-11">
          <mxGeometry x="34" y="50" width="30" height="30" as="geometry" />
        </mxCell>
        <mxCell id="6N_2MoYfHgcVI4_fVxiI-14" value="" style="endArrow=none;html=1;rounded=0;" edge="1" parent="6N_2MoYfHgcVI4_fVxiI-11">
          <mxGeometry width="50" height="50" relative="1" as="geometry">
            <mxPoint x="49" y="150" as="sourcePoint" />
            <mxPoint x="49" y="80" as="targetPoint" />
          </mxGeometry>
        </mxCell>
        <mxCell id="6N_2MoYfHgcVI4_fVxiI-15" value="" style="endArrow=none;html=1;rounded=0;" edge="1" parent="6N_2MoYfHgcVI4_fVxiI-11">
          <mxGeometry width="50" height="50" relative="1" as="geometry">
            <mxPoint x="9" y="110" as="sourcePoint" />
            <mxPoint x="89" y="110" as="targetPoint" />
          </mxGeometry>
        </mxCell>
        <mxCell id="6N_2MoYfHgcVI4_fVxiI-16" value="0" style="text;html=1;align=center;verticalAlign=middle;resizable=0;points=[];autosize=1;strokeColor=none;fillColor=none;" vertex="1" parent="6N_2MoYfHgcVI4_fVxiI-11">
          <mxGeometry x="10" y="80" width="30" height="30" as="geometry" />
        </mxCell>
        <mxCell id="6N_2MoYfHgcVI4_fVxiI-17" value="4" style="text;html=1;align=center;verticalAlign=middle;resizable=0;points=[];autosize=1;strokeColor=none;fillColor=none;" vertex="1" parent="6N_2MoYfHgcVI4_fVxiI-11">
          <mxGeometry x="49" y="79" width="30" height="30" as="geometry" />
        </mxCell>
        <mxCell id="6N_2MoYfHgcVI4_fVxiI-18" value="4" style="text;html=1;align=center;verticalAlign=middle;resizable=0;points=[];autosize=1;strokeColor=none;fillColor=none;" vertex="1" parent="6N_2MoYfHgcVI4_fVxiI-11">
          <mxGeometry x="57" y="115" width="30" height="30" as="geometry" />
        </mxCell>
        <mxCell id="6N_2MoYfHgcVI4_fVxiI-19" value="0" style="text;html=1;align=center;verticalAlign=middle;resizable=0;points=[];autosize=1;strokeColor=none;fillColor=none;" vertex="1" parent="6N_2MoYfHgcVI4_fVxiI-11">
          <mxGeometry x="12" y="114" width="30" height="30" as="geometry" />
        </mxCell>
        <mxCell id="6N_2MoYfHgcVI4_fVxiI-20" value="" style="group" vertex="1" connectable="0" parent="1">
          <mxGeometry x="550" y="170" width="97" height="150" as="geometry" />
        </mxCell>
        <mxCell id="6N_2MoYfHgcVI4_fVxiI-21" value="2" style="ellipse;whiteSpace=wrap;html=1;aspect=fixed;fillColor=#FF0000;" vertex="1" parent="6N_2MoYfHgcVI4_fVxiI-20">
          <mxGeometry x="9" width="80" height="80" as="geometry" />
        </mxCell>
        <mxCell id="6N_2MoYfHgcVI4_fVxiI-22" value="4" style="ellipse;whiteSpace=wrap;html=1;aspect=fixed;" vertex="1" parent="6N_2MoYfHgcVI4_fVxiI-20">
          <mxGeometry x="34" y="50" width="30" height="30" as="geometry" />
        </mxCell>
        <mxCell id="6N_2MoYfHgcVI4_fVxiI-23" value="" style="endArrow=none;html=1;rounded=0;" edge="1" parent="6N_2MoYfHgcVI4_fVxiI-20">
          <mxGeometry width="50" height="50" relative="1" as="geometry">
            <mxPoint x="49" y="150" as="sourcePoint" />
            <mxPoint x="49" y="80" as="targetPoint" />
          </mxGeometry>
        </mxCell>
        <mxCell id="6N_2MoYfHgcVI4_fVxiI-24" value="" style="endArrow=none;html=1;rounded=0;" edge="1" parent="6N_2MoYfHgcVI4_fVxiI-20">
          <mxGeometry width="50" height="50" relative="1" as="geometry">
            <mxPoint x="9" y="110" as="sourcePoint" />
            <mxPoint x="89" y="110" as="targetPoint" />
          </mxGeometry>
        </mxCell>
        <mxCell id="6N_2MoYfHgcVI4_fVxiI-25" value="0" style="text;html=1;align=center;verticalAlign=middle;resizable=0;points=[];autosize=1;strokeColor=none;fillColor=none;" vertex="1" parent="6N_2MoYfHgcVI4_fVxiI-20">
          <mxGeometry x="10" y="80" width="30" height="30" as="geometry" />
        </mxCell>
        <mxCell id="6N_2MoYfHgcVI4_fVxiI-26" value="4" style="text;html=1;align=center;verticalAlign=middle;resizable=0;points=[];autosize=1;strokeColor=none;fillColor=none;" vertex="1" parent="6N_2MoYfHgcVI4_fVxiI-20">
          <mxGeometry x="49" y="79" width="30" height="30" as="geometry" />
        </mxCell>
        <mxCell id="6N_2MoYfHgcVI4_fVxiI-27" value="4" style="text;html=1;align=center;verticalAlign=middle;resizable=0;points=[];autosize=1;strokeColor=none;fillColor=none;" vertex="1" parent="6N_2MoYfHgcVI4_fVxiI-20">
          <mxGeometry x="57" y="115" width="30" height="30" as="geometry" />
        </mxCell>
        <mxCell id="6N_2MoYfHgcVI4_fVxiI-28" value="0" style="text;html=1;align=center;verticalAlign=middle;resizable=0;points=[];autosize=1;strokeColor=none;fillColor=none;" vertex="1" parent="6N_2MoYfHgcVI4_fVxiI-20">
          <mxGeometry x="12" y="114" width="30" height="30" as="geometry" />
        </mxCell>
        <mxCell id="6N_2MoYfHgcVI4_fVxiI-31" value="" style="group" vertex="1" connectable="0" parent="1">
          <mxGeometry x="550" y="330" width="97" height="150" as="geometry" />
        </mxCell>
        <mxCell id="6N_2MoYfHgcVI4_fVxiI-32" value="3" style="ellipse;whiteSpace=wrap;html=1;aspect=fixed;" vertex="1" parent="6N_2MoYfHgcVI4_fVxiI-31">
          <mxGeometry x="9" width="80" height="80" as="geometry" />
        </mxCell>
        <mxCell id="6N_2MoYfHgcVI4_fVxiI-33" value="3" style="ellipse;whiteSpace=wrap;html=1;aspect=fixed;direction=south;" vertex="1" parent="6N_2MoYfHgcVI4_fVxiI-31">
          <mxGeometry x="34" y="50" width="30" height="30" as="geometry" />
        </mxCell>
        <mxCell id="6N_2MoYfHgcVI4_fVxiI-34" value="" style="endArrow=none;html=1;rounded=0;" edge="1" parent="6N_2MoYfHgcVI4_fVxiI-31">
          <mxGeometry width="50" height="50" relative="1" as="geometry">
            <mxPoint x="49" y="150" as="sourcePoint" />
            <mxPoint x="49" y="80" as="targetPoint" />
          </mxGeometry>
        </mxCell>
        <mxCell id="6N_2MoYfHgcVI4_fVxiI-35" value="" style="endArrow=none;html=1;rounded=0;" edge="1" parent="6N_2MoYfHgcVI4_fVxiI-31">
          <mxGeometry width="50" height="50" relative="1" as="geometry">
            <mxPoint x="9" y="110" as="sourcePoint" />
            <mxPoint x="89" y="110" as="targetPoint" />
          </mxGeometry>
        </mxCell>
        <mxCell id="6N_2MoYfHgcVI4_fVxiI-36" value="0" style="text;html=1;align=center;verticalAlign=middle;resizable=0;points=[];autosize=1;strokeColor=none;fillColor=none;" vertex="1" parent="6N_2MoYfHgcVI4_fVxiI-31">
          <mxGeometry x="10" y="80" width="30" height="30" as="geometry" />
        </mxCell>
        <mxCell id="6N_2MoYfHgcVI4_fVxiI-37" value="3" style="text;html=1;align=center;verticalAlign=middle;resizable=0;points=[];autosize=1;strokeColor=none;fillColor=none;" vertex="1" parent="6N_2MoYfHgcVI4_fVxiI-31">
          <mxGeometry x="49" y="79" width="30" height="30" as="geometry" />
        </mxCell>
        <mxCell id="6N_2MoYfHgcVI4_fVxiI-38" value="4" style="text;html=1;align=center;verticalAlign=middle;resizable=0;points=[];autosize=1;strokeColor=none;fillColor=none;" vertex="1" parent="6N_2MoYfHgcVI4_fVxiI-31">
          <mxGeometry x="57" y="115" width="30" height="30" as="geometry" />
        </mxCell>
        <mxCell id="6N_2MoYfHgcVI4_fVxiI-39" value="1" style="text;html=1;align=center;verticalAlign=middle;resizable=0;points=[];autosize=1;strokeColor=none;fillColor=none;" vertex="1" parent="6N_2MoYfHgcVI4_fVxiI-31">
          <mxGeometry x="12" y="114" width="30" height="30" as="geometry" />
        </mxCell>
        <mxCell id="6N_2MoYfHgcVI4_fVxiI-40" value="" style="group" vertex="1" connectable="0" parent="1">
          <mxGeometry x="550" y="490" width="97" height="150" as="geometry" />
        </mxCell>
        <mxCell id="6N_2MoYfHgcVI4_fVxiI-41" value="4" style="ellipse;whiteSpace=wrap;html=1;aspect=fixed;fillColor=#FF0000;" vertex="1" parent="6N_2MoYfHgcVI4_fVxiI-40">
          <mxGeometry x="9" width="80" height="80" as="geometry" />
        </mxCell>
        <mxCell id="6N_2MoYfHgcVI4_fVxiI-42" value="4" style="ellipse;whiteSpace=wrap;html=1;aspect=fixed;" vertex="1" parent="6N_2MoYfHgcVI4_fVxiI-40">
          <mxGeometry x="34" y="50" width="30" height="30" as="geometry" />
        </mxCell>
        <mxCell id="6N_2MoYfHgcVI4_fVxiI-43" value="" style="endArrow=none;html=1;rounded=0;" edge="1" parent="6N_2MoYfHgcVI4_fVxiI-40">
          <mxGeometry width="50" height="50" relative="1" as="geometry">
            <mxPoint x="49" y="150" as="sourcePoint" />
            <mxPoint x="49" y="80" as="targetPoint" />
          </mxGeometry>
        </mxCell>
        <mxCell id="6N_2MoYfHgcVI4_fVxiI-44" value="" style="endArrow=none;html=1;rounded=0;" edge="1" parent="6N_2MoYfHgcVI4_fVxiI-40">
          <mxGeometry width="50" height="50" relative="1" as="geometry">
            <mxPoint x="9" y="110" as="sourcePoint" />
            <mxPoint x="89" y="110" as="targetPoint" />
          </mxGeometry>
        </mxCell>
        <mxCell id="6N_2MoYfHgcVI4_fVxiI-45" value="0" style="text;html=1;align=center;verticalAlign=middle;resizable=0;points=[];autosize=1;strokeColor=none;fillColor=none;" vertex="1" parent="6N_2MoYfHgcVI4_fVxiI-40">
          <mxGeometry x="10" y="80" width="30" height="30" as="geometry" />
        </mxCell>
        <mxCell id="6N_2MoYfHgcVI4_fVxiI-46" value="4" style="text;html=1;align=center;verticalAlign=middle;resizable=0;points=[];autosize=1;strokeColor=none;fillColor=none;" vertex="1" parent="6N_2MoYfHgcVI4_fVxiI-40">
          <mxGeometry x="49" y="79" width="30" height="30" as="geometry" />
        </mxCell>
        <mxCell id="6N_2MoYfHgcVI4_fVxiI-47" value="4" style="text;html=1;align=center;verticalAlign=middle;resizable=0;points=[];autosize=1;strokeColor=none;fillColor=none;" vertex="1" parent="6N_2MoYfHgcVI4_fVxiI-40">
          <mxGeometry x="57" y="115" width="30" height="30" as="geometry" />
        </mxCell>
        <mxCell id="6N_2MoYfHgcVI4_fVxiI-48" value="0" style="text;html=1;align=center;verticalAlign=middle;resizable=0;points=[];autosize=1;strokeColor=none;fillColor=none;" vertex="1" parent="6N_2MoYfHgcVI4_fVxiI-40">
          <mxGeometry x="12" y="114" width="30" height="30" as="geometry" />
        </mxCell>
        <mxCell id="6N_2MoYfHgcVI4_fVxiI-52" value="" style="group" vertex="1" connectable="0" parent="1">
          <mxGeometry x="550" y="660" width="97" height="150" as="geometry" />
        </mxCell>
        <mxCell id="6N_2MoYfHgcVI4_fVxiI-53" value="5" style="ellipse;whiteSpace=wrap;html=1;aspect=fixed;" vertex="1" parent="6N_2MoYfHgcVI4_fVxiI-52">
          <mxGeometry x="9" width="80" height="80" as="geometry" />
        </mxCell>
        <mxCell id="6N_2MoYfHgcVI4_fVxiI-54" value="3" style="ellipse;whiteSpace=wrap;html=1;aspect=fixed;" vertex="1" parent="6N_2MoYfHgcVI4_fVxiI-52">
          <mxGeometry x="34" y="50" width="30" height="30" as="geometry" />
        </mxCell>
        <mxCell id="6N_2MoYfHgcVI4_fVxiI-55" value="" style="endArrow=none;html=1;rounded=0;" edge="1" parent="6N_2MoYfHgcVI4_fVxiI-52">
          <mxGeometry width="50" height="50" relative="1" as="geometry">
            <mxPoint x="49" y="150" as="sourcePoint" />
            <mxPoint x="49" y="80" as="targetPoint" />
          </mxGeometry>
        </mxCell>
        <mxCell id="6N_2MoYfHgcVI4_fVxiI-56" value="" style="endArrow=none;html=1;rounded=0;" edge="1" parent="6N_2MoYfHgcVI4_fVxiI-52">
          <mxGeometry width="50" height="50" relative="1" as="geometry">
            <mxPoint x="9" y="110" as="sourcePoint" />
            <mxPoint x="89" y="110" as="targetPoint" />
          </mxGeometry>
        </mxCell>
        <mxCell id="6N_2MoYfHgcVI4_fVxiI-57" value="0" style="text;html=1;align=center;verticalAlign=middle;resizable=0;points=[];autosize=1;strokeColor=none;fillColor=none;" vertex="1" parent="6N_2MoYfHgcVI4_fVxiI-52">
          <mxGeometry x="10" y="80" width="30" height="30" as="geometry" />
        </mxCell>
        <mxCell id="6N_2MoYfHgcVI4_fVxiI-58" value="3" style="text;html=1;align=center;verticalAlign=middle;resizable=0;points=[];autosize=1;strokeColor=none;fillColor=none;" vertex="1" parent="6N_2MoYfHgcVI4_fVxiI-52">
          <mxGeometry x="49" y="79" width="30" height="30" as="geometry" />
        </mxCell>
        <mxCell id="6N_2MoYfHgcVI4_fVxiI-59" value="4" style="text;html=1;align=center;verticalAlign=middle;resizable=0;points=[];autosize=1;strokeColor=none;fillColor=none;" vertex="1" parent="6N_2MoYfHgcVI4_fVxiI-52">
          <mxGeometry x="57" y="115" width="30" height="30" as="geometry" />
        </mxCell>
        <mxCell id="6N_2MoYfHgcVI4_fVxiI-60" value="1" style="text;html=1;align=center;verticalAlign=middle;resizable=0;points=[];autosize=1;strokeColor=none;fillColor=none;" vertex="1" parent="6N_2MoYfHgcVI4_fVxiI-52">
          <mxGeometry x="12" y="114" width="30" height="30" as="geometry" />
        </mxCell>
        <mxCell id="6N_2MoYfHgcVI4_fVxiI-61" value="" style="group" vertex="1" connectable="0" parent="1">
          <mxGeometry x="550" y="830" width="97" height="150" as="geometry" />
        </mxCell>
        <mxCell id="6N_2MoYfHgcVI4_fVxiI-62" value="6" style="ellipse;whiteSpace=wrap;html=1;aspect=fixed;fillColor=#FF0000;" vertex="1" parent="6N_2MoYfHgcVI4_fVxiI-61">
          <mxGeometry x="9" width="80" height="80" as="geometry" />
        </mxCell>
        <mxCell id="6N_2MoYfHgcVI4_fVxiI-63" value="4" style="ellipse;whiteSpace=wrap;html=1;aspect=fixed;" vertex="1" parent="6N_2MoYfHgcVI4_fVxiI-61">
          <mxGeometry x="34" y="50" width="30" height="30" as="geometry" />
        </mxCell>
        <mxCell id="6N_2MoYfHgcVI4_fVxiI-64" value="" style="endArrow=none;html=1;rounded=0;" edge="1" parent="6N_2MoYfHgcVI4_fVxiI-61">
          <mxGeometry width="50" height="50" relative="1" as="geometry">
            <mxPoint x="49" y="150" as="sourcePoint" />
            <mxPoint x="49" y="80" as="targetPoint" />
          </mxGeometry>
        </mxCell>
        <mxCell id="6N_2MoYfHgcVI4_fVxiI-65" value="" style="endArrow=none;html=1;rounded=0;" edge="1" parent="6N_2MoYfHgcVI4_fVxiI-61">
          <mxGeometry width="50" height="50" relative="1" as="geometry">
            <mxPoint x="9" y="110" as="sourcePoint" />
            <mxPoint x="89" y="110" as="targetPoint" />
          </mxGeometry>
        </mxCell>
        <mxCell id="6N_2MoYfHgcVI4_fVxiI-66" value="0" style="text;html=1;align=center;verticalAlign=middle;resizable=0;points=[];autosize=1;strokeColor=none;fillColor=none;" vertex="1" parent="6N_2MoYfHgcVI4_fVxiI-61">
          <mxGeometry x="10" y="80" width="30" height="30" as="geometry" />
        </mxCell>
        <mxCell id="6N_2MoYfHgcVI4_fVxiI-67" value="4" style="text;html=1;align=center;verticalAlign=middle;resizable=0;points=[];autosize=1;strokeColor=none;fillColor=none;" vertex="1" parent="6N_2MoYfHgcVI4_fVxiI-61">
          <mxGeometry x="49" y="79" width="30" height="30" as="geometry" />
        </mxCell>
        <mxCell id="6N_2MoYfHgcVI4_fVxiI-68" value="4" style="text;html=1;align=center;verticalAlign=middle;resizable=0;points=[];autosize=1;strokeColor=none;fillColor=none;" vertex="1" parent="6N_2MoYfHgcVI4_fVxiI-61">
          <mxGeometry x="57" y="115" width="30" height="30" as="geometry" />
        </mxCell>
        <mxCell id="6N_2MoYfHgcVI4_fVxiI-69" value="0" style="text;html=1;align=center;verticalAlign=middle;resizable=0;points=[];autosize=1;strokeColor=none;fillColor=none;" vertex="1" parent="6N_2MoYfHgcVI4_fVxiI-61">
          <mxGeometry x="12" y="114" width="30" height="30" as="geometry" />
        </mxCell>
        <mxCell id="6N_2MoYfHgcVI4_fVxiI-70" value="" style="group" vertex="1" connectable="0" parent="1">
          <mxGeometry x="550" y="2800" width="97" height="150" as="geometry" />
        </mxCell>
        <mxCell id="6N_2MoYfHgcVI4_fVxiI-71" value="18" style="ellipse;whiteSpace=wrap;html=1;aspect=fixed;" vertex="1" parent="6N_2MoYfHgcVI4_fVxiI-70">
          <mxGeometry x="9" width="80" height="80" as="geometry" />
        </mxCell>
        <mxCell id="6N_2MoYfHgcVI4_fVxiI-72" value="3" style="ellipse;whiteSpace=wrap;html=1;aspect=fixed;" vertex="1" parent="6N_2MoYfHgcVI4_fVxiI-70">
          <mxGeometry x="34" y="50" width="30" height="30" as="geometry" />
        </mxCell>
        <mxCell id="6N_2MoYfHgcVI4_fVxiI-73" value="" style="endArrow=none;html=1;rounded=0;" edge="1" parent="6N_2MoYfHgcVI4_fVxiI-70">
          <mxGeometry width="50" height="50" relative="1" as="geometry">
            <mxPoint x="49" y="150" as="sourcePoint" />
            <mxPoint x="49" y="80" as="targetPoint" />
          </mxGeometry>
        </mxCell>
        <mxCell id="6N_2MoYfHgcVI4_fVxiI-74" value="" style="endArrow=none;html=1;rounded=0;" edge="1" parent="6N_2MoYfHgcVI4_fVxiI-70">
          <mxGeometry width="50" height="50" relative="1" as="geometry">
            <mxPoint x="9" y="110" as="sourcePoint" />
            <mxPoint x="89" y="110" as="targetPoint" />
          </mxGeometry>
        </mxCell>
        <mxCell id="6N_2MoYfHgcVI4_fVxiI-75" value="0" style="text;html=1;align=center;verticalAlign=middle;resizable=0;points=[];autosize=1;strokeColor=none;fillColor=none;" vertex="1" parent="6N_2MoYfHgcVI4_fVxiI-70">
          <mxGeometry x="10" y="80" width="30" height="30" as="geometry" />
        </mxCell>
        <mxCell id="6N_2MoYfHgcVI4_fVxiI-76" value="3" style="text;html=1;align=center;verticalAlign=middle;resizable=0;points=[];autosize=1;strokeColor=none;fillColor=none;" vertex="1" parent="6N_2MoYfHgcVI4_fVxiI-70">
          <mxGeometry x="49" y="79" width="30" height="30" as="geometry" />
        </mxCell>
        <mxCell id="6N_2MoYfHgcVI4_fVxiI-77" value="4" style="text;html=1;align=center;verticalAlign=middle;resizable=0;points=[];autosize=1;strokeColor=none;fillColor=none;" vertex="1" parent="6N_2MoYfHgcVI4_fVxiI-70">
          <mxGeometry x="57" y="115" width="30" height="30" as="geometry" />
        </mxCell>
        <mxCell id="6N_2MoYfHgcVI4_fVxiI-78" value="1" style="text;html=1;align=center;verticalAlign=middle;resizable=0;points=[];autosize=1;strokeColor=none;fillColor=none;" vertex="1" parent="6N_2MoYfHgcVI4_fVxiI-70">
          <mxGeometry x="12" y="114" width="30" height="30" as="geometry" />
        </mxCell>
        <mxCell id="6N_2MoYfHgcVI4_fVxiI-187" value="" style="group" vertex="1" connectable="0" parent="1">
          <mxGeometry x="550" y="2960" width="97" height="150" as="geometry" />
        </mxCell>
        <mxCell id="6N_2MoYfHgcVI4_fVxiI-188" value="19" style="ellipse;whiteSpace=wrap;html=1;aspect=fixed;fillColor=#FF0000;" vertex="1" parent="6N_2MoYfHgcVI4_fVxiI-187">
          <mxGeometry x="9" width="80" height="80" as="geometry" />
        </mxCell>
        <mxCell id="6N_2MoYfHgcVI4_fVxiI-189" value="4" style="ellipse;whiteSpace=wrap;html=1;aspect=fixed;" vertex="1" parent="6N_2MoYfHgcVI4_fVxiI-187">
          <mxGeometry x="34" y="50" width="30" height="30" as="geometry" />
        </mxCell>
        <mxCell id="6N_2MoYfHgcVI4_fVxiI-190" value="" style="endArrow=none;html=1;rounded=0;" edge="1" parent="6N_2MoYfHgcVI4_fVxiI-187">
          <mxGeometry width="50" height="50" relative="1" as="geometry">
            <mxPoint x="49" y="150" as="sourcePoint" />
            <mxPoint x="49" y="80" as="targetPoint" />
          </mxGeometry>
        </mxCell>
        <mxCell id="6N_2MoYfHgcVI4_fVxiI-191" value="" style="endArrow=none;html=1;rounded=0;" edge="1" parent="6N_2MoYfHgcVI4_fVxiI-187">
          <mxGeometry width="50" height="50" relative="1" as="geometry">
            <mxPoint x="9" y="110" as="sourcePoint" />
            <mxPoint x="89" y="110" as="targetPoint" />
          </mxGeometry>
        </mxCell>
        <mxCell id="6N_2MoYfHgcVI4_fVxiI-192" value="0" style="text;html=1;align=center;verticalAlign=middle;resizable=0;points=[];autosize=1;strokeColor=none;fillColor=none;" vertex="1" parent="6N_2MoYfHgcVI4_fVxiI-187">
          <mxGeometry x="10" y="80" width="30" height="30" as="geometry" />
        </mxCell>
        <mxCell id="6N_2MoYfHgcVI4_fVxiI-193" value="4" style="text;html=1;align=center;verticalAlign=middle;resizable=0;points=[];autosize=1;strokeColor=none;fillColor=none;" vertex="1" parent="6N_2MoYfHgcVI4_fVxiI-187">
          <mxGeometry x="49" y="79" width="30" height="30" as="geometry" />
        </mxCell>
        <mxCell id="6N_2MoYfHgcVI4_fVxiI-194" value="4" style="text;html=1;align=center;verticalAlign=middle;resizable=0;points=[];autosize=1;strokeColor=none;fillColor=none;" vertex="1" parent="6N_2MoYfHgcVI4_fVxiI-187">
          <mxGeometry x="57" y="115" width="30" height="30" as="geometry" />
        </mxCell>
        <mxCell id="6N_2MoYfHgcVI4_fVxiI-195" value="0" style="text;html=1;align=center;verticalAlign=middle;resizable=0;points=[];autosize=1;strokeColor=none;fillColor=none;" vertex="1" parent="6N_2MoYfHgcVI4_fVxiI-187">
          <mxGeometry x="12" y="114" width="30" height="30" as="geometry" />
        </mxCell>
        <mxCell id="6N_2MoYfHgcVI4_fVxiI-196" value="" style="group" vertex="1" connectable="0" parent="1">
          <mxGeometry x="550" y="2640" width="97" height="150" as="geometry" />
        </mxCell>
        <mxCell id="6N_2MoYfHgcVI4_fVxiI-197" value="17" style="ellipse;whiteSpace=wrap;html=1;aspect=fixed;" vertex="1" parent="6N_2MoYfHgcVI4_fVxiI-196">
          <mxGeometry x="9" width="80" height="80" as="geometry" />
        </mxCell>
        <mxCell id="6N_2MoYfHgcVI4_fVxiI-198" value="3" style="ellipse;whiteSpace=wrap;html=1;aspect=fixed;" vertex="1" parent="6N_2MoYfHgcVI4_fVxiI-196">
          <mxGeometry x="34" y="50" width="30" height="30" as="geometry" />
        </mxCell>
        <mxCell id="6N_2MoYfHgcVI4_fVxiI-199" value="" style="endArrow=none;html=1;rounded=0;" edge="1" parent="6N_2MoYfHgcVI4_fVxiI-196">
          <mxGeometry width="50" height="50" relative="1" as="geometry">
            <mxPoint x="49" y="150" as="sourcePoint" />
            <mxPoint x="49" y="80" as="targetPoint" />
          </mxGeometry>
        </mxCell>
        <mxCell id="6N_2MoYfHgcVI4_fVxiI-200" value="" style="endArrow=none;html=1;rounded=0;" edge="1" parent="6N_2MoYfHgcVI4_fVxiI-196">
          <mxGeometry width="50" height="50" relative="1" as="geometry">
            <mxPoint x="9" y="110" as="sourcePoint" />
            <mxPoint x="89" y="110" as="targetPoint" />
          </mxGeometry>
        </mxCell>
        <mxCell id="6N_2MoYfHgcVI4_fVxiI-201" value="0" style="text;html=1;align=center;verticalAlign=middle;resizable=0;points=[];autosize=1;strokeColor=none;fillColor=none;" vertex="1" parent="6N_2MoYfHgcVI4_fVxiI-196">
          <mxGeometry x="10" y="80" width="30" height="30" as="geometry" />
        </mxCell>
        <mxCell id="6N_2MoYfHgcVI4_fVxiI-202" value="3" style="text;html=1;align=center;verticalAlign=middle;resizable=0;points=[];autosize=1;strokeColor=none;fillColor=none;" vertex="1" parent="6N_2MoYfHgcVI4_fVxiI-196">
          <mxGeometry x="49" y="79" width="30" height="30" as="geometry" />
        </mxCell>
        <mxCell id="6N_2MoYfHgcVI4_fVxiI-203" value="4" style="text;html=1;align=center;verticalAlign=middle;resizable=0;points=[];autosize=1;strokeColor=none;fillColor=none;" vertex="1" parent="6N_2MoYfHgcVI4_fVxiI-196">
          <mxGeometry x="57" y="115" width="30" height="30" as="geometry" />
        </mxCell>
        <mxCell id="6N_2MoYfHgcVI4_fVxiI-204" value="1" style="text;html=1;align=center;verticalAlign=middle;resizable=0;points=[];autosize=1;strokeColor=none;fillColor=none;" vertex="1" parent="6N_2MoYfHgcVI4_fVxiI-196">
          <mxGeometry x="12" y="114" width="30" height="30" as="geometry" />
        </mxCell>
        <mxCell id="6N_2MoYfHgcVI4_fVxiI-205" value="" style="group" vertex="1" connectable="0" parent="1">
          <mxGeometry x="550" y="2480" width="97" height="150" as="geometry" />
        </mxCell>
        <mxCell id="6N_2MoYfHgcVI4_fVxiI-206" value="16" style="ellipse;whiteSpace=wrap;html=1;aspect=fixed;" vertex="1" parent="6N_2MoYfHgcVI4_fVxiI-205">
          <mxGeometry x="9" width="80" height="80" as="geometry" />
        </mxCell>
        <mxCell id="6N_2MoYfHgcVI4_fVxiI-207" value="3" style="ellipse;whiteSpace=wrap;html=1;aspect=fixed;" vertex="1" parent="6N_2MoYfHgcVI4_fVxiI-205">
          <mxGeometry x="34" y="50" width="30" height="30" as="geometry" />
        </mxCell>
        <mxCell id="6N_2MoYfHgcVI4_fVxiI-208" value="" style="endArrow=none;html=1;rounded=0;" edge="1" parent="6N_2MoYfHgcVI4_fVxiI-205">
          <mxGeometry width="50" height="50" relative="1" as="geometry">
            <mxPoint x="49" y="150" as="sourcePoint" />
            <mxPoint x="49" y="80" as="targetPoint" />
          </mxGeometry>
        </mxCell>
        <mxCell id="6N_2MoYfHgcVI4_fVxiI-209" value="" style="endArrow=none;html=1;rounded=0;" edge="1" parent="6N_2MoYfHgcVI4_fVxiI-205">
          <mxGeometry width="50" height="50" relative="1" as="geometry">
            <mxPoint x="9" y="110" as="sourcePoint" />
            <mxPoint x="89" y="110" as="targetPoint" />
          </mxGeometry>
        </mxCell>
        <mxCell id="6N_2MoYfHgcVI4_fVxiI-210" value="0" style="text;html=1;align=center;verticalAlign=middle;resizable=0;points=[];autosize=1;strokeColor=none;fillColor=none;" vertex="1" parent="6N_2MoYfHgcVI4_fVxiI-205">
          <mxGeometry x="10" y="80" width="30" height="30" as="geometry" />
        </mxCell>
        <mxCell id="6N_2MoYfHgcVI4_fVxiI-211" value="3" style="text;html=1;align=center;verticalAlign=middle;resizable=0;points=[];autosize=1;strokeColor=none;fillColor=none;" vertex="1" parent="6N_2MoYfHgcVI4_fVxiI-205">
          <mxGeometry x="49" y="79" width="30" height="30" as="geometry" />
        </mxCell>
        <mxCell id="6N_2MoYfHgcVI4_fVxiI-212" value="4" style="text;html=1;align=center;verticalAlign=middle;resizable=0;points=[];autosize=1;strokeColor=none;fillColor=none;" vertex="1" parent="6N_2MoYfHgcVI4_fVxiI-205">
          <mxGeometry x="57" y="115" width="30" height="30" as="geometry" />
        </mxCell>
        <mxCell id="6N_2MoYfHgcVI4_fVxiI-213" value="1" style="text;html=1;align=center;verticalAlign=middle;resizable=0;points=[];autosize=1;strokeColor=none;fillColor=none;" vertex="1" parent="6N_2MoYfHgcVI4_fVxiI-205">
          <mxGeometry x="12" y="114" width="30" height="30" as="geometry" />
        </mxCell>
        <mxCell id="6N_2MoYfHgcVI4_fVxiI-214" value="" style="group" vertex="1" connectable="0" parent="1">
          <mxGeometry x="550" y="2320" width="97" height="150" as="geometry" />
        </mxCell>
        <mxCell id="6N_2MoYfHgcVI4_fVxiI-215" value="15" style="ellipse;whiteSpace=wrap;html=1;aspect=fixed;" vertex="1" parent="6N_2MoYfHgcVI4_fVxiI-214">
          <mxGeometry x="9" width="80" height="80" as="geometry" />
        </mxCell>
        <mxCell id="6N_2MoYfHgcVI4_fVxiI-216" value="3" style="ellipse;whiteSpace=wrap;html=1;aspect=fixed;" vertex="1" parent="6N_2MoYfHgcVI4_fVxiI-214">
          <mxGeometry x="34" y="50" width="30" height="30" as="geometry" />
        </mxCell>
        <mxCell id="6N_2MoYfHgcVI4_fVxiI-217" value="" style="endArrow=none;html=1;rounded=0;" edge="1" parent="6N_2MoYfHgcVI4_fVxiI-214">
          <mxGeometry width="50" height="50" relative="1" as="geometry">
            <mxPoint x="49" y="150" as="sourcePoint" />
            <mxPoint x="49" y="80" as="targetPoint" />
          </mxGeometry>
        </mxCell>
        <mxCell id="6N_2MoYfHgcVI4_fVxiI-218" value="" style="endArrow=none;html=1;rounded=0;" edge="1" parent="6N_2MoYfHgcVI4_fVxiI-214">
          <mxGeometry width="50" height="50" relative="1" as="geometry">
            <mxPoint x="9" y="110" as="sourcePoint" />
            <mxPoint x="89" y="110" as="targetPoint" />
          </mxGeometry>
        </mxCell>
        <mxCell id="6N_2MoYfHgcVI4_fVxiI-219" value="0" style="text;html=1;align=center;verticalAlign=middle;resizable=0;points=[];autosize=1;strokeColor=none;fillColor=none;" vertex="1" parent="6N_2MoYfHgcVI4_fVxiI-214">
          <mxGeometry x="10" y="80" width="30" height="30" as="geometry" />
        </mxCell>
        <mxCell id="6N_2MoYfHgcVI4_fVxiI-220" value="3" style="text;html=1;align=center;verticalAlign=middle;resizable=0;points=[];autosize=1;strokeColor=none;fillColor=none;" vertex="1" parent="6N_2MoYfHgcVI4_fVxiI-214">
          <mxGeometry x="49" y="79" width="30" height="30" as="geometry" />
        </mxCell>
        <mxCell id="6N_2MoYfHgcVI4_fVxiI-221" value="4" style="text;html=1;align=center;verticalAlign=middle;resizable=0;points=[];autosize=1;strokeColor=none;fillColor=none;" vertex="1" parent="6N_2MoYfHgcVI4_fVxiI-214">
          <mxGeometry x="57" y="115" width="30" height="30" as="geometry" />
        </mxCell>
        <mxCell id="6N_2MoYfHgcVI4_fVxiI-222" value="1" style="text;html=1;align=center;verticalAlign=middle;resizable=0;points=[];autosize=1;strokeColor=none;fillColor=none;" vertex="1" parent="6N_2MoYfHgcVI4_fVxiI-214">
          <mxGeometry x="12" y="114" width="30" height="30" as="geometry" />
        </mxCell>
        <mxCell id="6N_2MoYfHgcVI4_fVxiI-223" value="14" style="group" vertex="1" connectable="0" parent="1">
          <mxGeometry x="550" y="2160" width="97" height="150" as="geometry" />
        </mxCell>
        <mxCell id="6N_2MoYfHgcVI4_fVxiI-224" value="14" style="ellipse;whiteSpace=wrap;html=1;aspect=fixed;fillColor=#FF0000;" vertex="1" parent="6N_2MoYfHgcVI4_fVxiI-223">
          <mxGeometry x="9" width="80" height="80" as="geometry" />
        </mxCell>
        <mxCell id="6N_2MoYfHgcVI4_fVxiI-225" value="4" style="ellipse;whiteSpace=wrap;html=1;aspect=fixed;" vertex="1" parent="6N_2MoYfHgcVI4_fVxiI-223">
          <mxGeometry x="34" y="50" width="30" height="30" as="geometry" />
        </mxCell>
        <mxCell id="6N_2MoYfHgcVI4_fVxiI-226" value="" style="endArrow=none;html=1;rounded=0;" edge="1" parent="6N_2MoYfHgcVI4_fVxiI-223">
          <mxGeometry width="50" height="50" relative="1" as="geometry">
            <mxPoint x="49" y="150" as="sourcePoint" />
            <mxPoint x="49" y="80" as="targetPoint" />
          </mxGeometry>
        </mxCell>
        <mxCell id="6N_2MoYfHgcVI4_fVxiI-227" value="" style="endArrow=none;html=1;rounded=0;" edge="1" parent="6N_2MoYfHgcVI4_fVxiI-223">
          <mxGeometry width="50" height="50" relative="1" as="geometry">
            <mxPoint x="9" y="110" as="sourcePoint" />
            <mxPoint x="89" y="110" as="targetPoint" />
          </mxGeometry>
        </mxCell>
        <mxCell id="6N_2MoYfHgcVI4_fVxiI-228" value="0" style="text;html=1;align=center;verticalAlign=middle;resizable=0;points=[];autosize=1;strokeColor=none;fillColor=none;" vertex="1" parent="6N_2MoYfHgcVI4_fVxiI-223">
          <mxGeometry x="10" y="80" width="30" height="30" as="geometry" />
        </mxCell>
        <mxCell id="6N_2MoYfHgcVI4_fVxiI-229" value="4" style="text;html=1;align=center;verticalAlign=middle;resizable=0;points=[];autosize=1;strokeColor=none;fillColor=none;" vertex="1" parent="6N_2MoYfHgcVI4_fVxiI-223">
          <mxGeometry x="49" y="79" width="30" height="30" as="geometry" />
        </mxCell>
        <mxCell id="6N_2MoYfHgcVI4_fVxiI-230" value="4" style="text;html=1;align=center;verticalAlign=middle;resizable=0;points=[];autosize=1;strokeColor=none;fillColor=none;" vertex="1" parent="6N_2MoYfHgcVI4_fVxiI-223">
          <mxGeometry x="57" y="115" width="30" height="30" as="geometry" />
        </mxCell>
        <mxCell id="6N_2MoYfHgcVI4_fVxiI-231" value="0" style="text;html=1;align=center;verticalAlign=middle;resizable=0;points=[];autosize=1;strokeColor=none;fillColor=none;" vertex="1" parent="6N_2MoYfHgcVI4_fVxiI-223">
          <mxGeometry x="12" y="114" width="30" height="30" as="geometry" />
        </mxCell>
        <mxCell id="6N_2MoYfHgcVI4_fVxiI-232" value="" style="group" vertex="1" connectable="0" parent="1">
          <mxGeometry x="550" y="2000" width="97" height="150" as="geometry" />
        </mxCell>
        <mxCell id="6N_2MoYfHgcVI4_fVxiI-233" value="13" style="ellipse;whiteSpace=wrap;html=1;aspect=fixed;fillColor=#FF0000;" vertex="1" parent="6N_2MoYfHgcVI4_fVxiI-232">
          <mxGeometry x="9" width="80" height="80" as="geometry" />
        </mxCell>
        <mxCell id="6N_2MoYfHgcVI4_fVxiI-234" value="4" style="ellipse;whiteSpace=wrap;html=1;aspect=fixed;" vertex="1" parent="6N_2MoYfHgcVI4_fVxiI-232">
          <mxGeometry x="34" y="50" width="30" height="30" as="geometry" />
        </mxCell>
        <mxCell id="6N_2MoYfHgcVI4_fVxiI-235" value="" style="endArrow=none;html=1;rounded=0;" edge="1" parent="6N_2MoYfHgcVI4_fVxiI-232">
          <mxGeometry width="50" height="50" relative="1" as="geometry">
            <mxPoint x="49" y="150" as="sourcePoint" />
            <mxPoint x="49" y="80" as="targetPoint" />
          </mxGeometry>
        </mxCell>
        <mxCell id="6N_2MoYfHgcVI4_fVxiI-236" value="" style="endArrow=none;html=1;rounded=0;" edge="1" parent="6N_2MoYfHgcVI4_fVxiI-232">
          <mxGeometry width="50" height="50" relative="1" as="geometry">
            <mxPoint x="9" y="110" as="sourcePoint" />
            <mxPoint x="89" y="110" as="targetPoint" />
          </mxGeometry>
        </mxCell>
        <mxCell id="6N_2MoYfHgcVI4_fVxiI-237" value="0" style="text;html=1;align=center;verticalAlign=middle;resizable=0;points=[];autosize=1;strokeColor=none;fillColor=none;" vertex="1" parent="6N_2MoYfHgcVI4_fVxiI-232">
          <mxGeometry x="10" y="80" width="30" height="30" as="geometry" />
        </mxCell>
        <mxCell id="6N_2MoYfHgcVI4_fVxiI-238" value="4" style="text;html=1;align=center;verticalAlign=middle;resizable=0;points=[];autosize=1;strokeColor=none;fillColor=none;" vertex="1" parent="6N_2MoYfHgcVI4_fVxiI-232">
          <mxGeometry x="49" y="79" width="30" height="30" as="geometry" />
        </mxCell>
        <mxCell id="6N_2MoYfHgcVI4_fVxiI-239" value="4" style="text;html=1;align=center;verticalAlign=middle;resizable=0;points=[];autosize=1;strokeColor=none;fillColor=none;" vertex="1" parent="6N_2MoYfHgcVI4_fVxiI-232">
          <mxGeometry x="57" y="115" width="30" height="30" as="geometry" />
        </mxCell>
        <mxCell id="6N_2MoYfHgcVI4_fVxiI-240" value="0" style="text;html=1;align=center;verticalAlign=middle;resizable=0;points=[];autosize=1;strokeColor=none;fillColor=none;" vertex="1" parent="6N_2MoYfHgcVI4_fVxiI-232">
          <mxGeometry x="12" y="114" width="30" height="30" as="geometry" />
        </mxCell>
        <mxCell id="6N_2MoYfHgcVI4_fVxiI-241" value="" style="group" vertex="1" connectable="0" parent="1">
          <mxGeometry x="550" y="1830" width="97" height="150" as="geometry" />
        </mxCell>
        <mxCell id="6N_2MoYfHgcVI4_fVxiI-242" value="12" style="ellipse;whiteSpace=wrap;html=1;aspect=fixed;" vertex="1" parent="6N_2MoYfHgcVI4_fVxiI-241">
          <mxGeometry x="9" width="80" height="80" as="geometry" />
        </mxCell>
        <mxCell id="6N_2MoYfHgcVI4_fVxiI-243" value="3" style="ellipse;whiteSpace=wrap;html=1;aspect=fixed;" vertex="1" parent="6N_2MoYfHgcVI4_fVxiI-241">
          <mxGeometry x="34" y="50" width="30" height="30" as="geometry" />
        </mxCell>
        <mxCell id="6N_2MoYfHgcVI4_fVxiI-244" value="" style="endArrow=none;html=1;rounded=0;" edge="1" parent="6N_2MoYfHgcVI4_fVxiI-241">
          <mxGeometry width="50" height="50" relative="1" as="geometry">
            <mxPoint x="49" y="150" as="sourcePoint" />
            <mxPoint x="49" y="80" as="targetPoint" />
          </mxGeometry>
        </mxCell>
        <mxCell id="6N_2MoYfHgcVI4_fVxiI-245" value="" style="endArrow=none;html=1;rounded=0;" edge="1" parent="6N_2MoYfHgcVI4_fVxiI-241">
          <mxGeometry width="50" height="50" relative="1" as="geometry">
            <mxPoint x="9" y="110" as="sourcePoint" />
            <mxPoint x="89" y="110" as="targetPoint" />
          </mxGeometry>
        </mxCell>
        <mxCell id="6N_2MoYfHgcVI4_fVxiI-246" value="0" style="text;html=1;align=center;verticalAlign=middle;resizable=0;points=[];autosize=1;strokeColor=none;fillColor=none;" vertex="1" parent="6N_2MoYfHgcVI4_fVxiI-241">
          <mxGeometry x="10" y="80" width="30" height="30" as="geometry" />
        </mxCell>
        <mxCell id="6N_2MoYfHgcVI4_fVxiI-247" value="3" style="text;html=1;align=center;verticalAlign=middle;resizable=0;points=[];autosize=1;strokeColor=none;fillColor=none;" vertex="1" parent="6N_2MoYfHgcVI4_fVxiI-241">
          <mxGeometry x="49" y="79" width="30" height="30" as="geometry" />
        </mxCell>
        <mxCell id="6N_2MoYfHgcVI4_fVxiI-248" value="4" style="text;html=1;align=center;verticalAlign=middle;resizable=0;points=[];autosize=1;strokeColor=none;fillColor=none;" vertex="1" parent="6N_2MoYfHgcVI4_fVxiI-241">
          <mxGeometry x="57" y="115" width="30" height="30" as="geometry" />
        </mxCell>
        <mxCell id="6N_2MoYfHgcVI4_fVxiI-249" value="1" style="text;html=1;align=center;verticalAlign=middle;resizable=0;points=[];autosize=1;strokeColor=none;fillColor=none;" vertex="1" parent="6N_2MoYfHgcVI4_fVxiI-241">
          <mxGeometry x="12" y="114" width="30" height="30" as="geometry" />
        </mxCell>
        <mxCell id="6N_2MoYfHgcVI4_fVxiI-250" value="" style="group" vertex="1" connectable="0" parent="1">
          <mxGeometry x="550" y="1670" width="97" height="150" as="geometry" />
        </mxCell>
        <mxCell id="6N_2MoYfHgcVI4_fVxiI-251" value="11" style="ellipse;whiteSpace=wrap;html=1;aspect=fixed;fillColor=#FF0000;" vertex="1" parent="6N_2MoYfHgcVI4_fVxiI-250">
          <mxGeometry x="9" width="80" height="80" as="geometry" />
        </mxCell>
        <mxCell id="6N_2MoYfHgcVI4_fVxiI-252" value="4" style="ellipse;whiteSpace=wrap;html=1;aspect=fixed;" vertex="1" parent="6N_2MoYfHgcVI4_fVxiI-250">
          <mxGeometry x="34" y="50" width="30" height="30" as="geometry" />
        </mxCell>
        <mxCell id="6N_2MoYfHgcVI4_fVxiI-253" value="" style="endArrow=none;html=1;rounded=0;" edge="1" parent="6N_2MoYfHgcVI4_fVxiI-250">
          <mxGeometry width="50" height="50" relative="1" as="geometry">
            <mxPoint x="49" y="150" as="sourcePoint" />
            <mxPoint x="49" y="80" as="targetPoint" />
          </mxGeometry>
        </mxCell>
        <mxCell id="6N_2MoYfHgcVI4_fVxiI-254" value="" style="endArrow=none;html=1;rounded=0;" edge="1" parent="6N_2MoYfHgcVI4_fVxiI-250">
          <mxGeometry width="50" height="50" relative="1" as="geometry">
            <mxPoint x="9" y="110" as="sourcePoint" />
            <mxPoint x="89" y="110" as="targetPoint" />
          </mxGeometry>
        </mxCell>
        <mxCell id="6N_2MoYfHgcVI4_fVxiI-255" value="0" style="text;html=1;align=center;verticalAlign=middle;resizable=0;points=[];autosize=1;strokeColor=none;fillColor=none;" vertex="1" parent="6N_2MoYfHgcVI4_fVxiI-250">
          <mxGeometry x="10" y="80" width="30" height="30" as="geometry" />
        </mxCell>
        <mxCell id="6N_2MoYfHgcVI4_fVxiI-256" value="4" style="text;html=1;align=center;verticalAlign=middle;resizable=0;points=[];autosize=1;strokeColor=none;fillColor=none;" vertex="1" parent="6N_2MoYfHgcVI4_fVxiI-250">
          <mxGeometry x="49" y="79" width="30" height="30" as="geometry" />
        </mxCell>
        <mxCell id="6N_2MoYfHgcVI4_fVxiI-257" value="4" style="text;html=1;align=center;verticalAlign=middle;resizable=0;points=[];autosize=1;strokeColor=none;fillColor=none;" vertex="1" parent="6N_2MoYfHgcVI4_fVxiI-250">
          <mxGeometry x="57" y="115" width="30" height="30" as="geometry" />
        </mxCell>
        <mxCell id="6N_2MoYfHgcVI4_fVxiI-258" value="0" style="text;html=1;align=center;verticalAlign=middle;resizable=0;points=[];autosize=1;strokeColor=none;fillColor=none;" vertex="1" parent="6N_2MoYfHgcVI4_fVxiI-250">
          <mxGeometry x="12" y="114" width="30" height="30" as="geometry" />
        </mxCell>
        <mxCell id="6N_2MoYfHgcVI4_fVxiI-259" value="" style="group" vertex="1" connectable="0" parent="1">
          <mxGeometry x="550" y="1500" width="97" height="150" as="geometry" />
        </mxCell>
        <mxCell id="6N_2MoYfHgcVI4_fVxiI-260" value="10" style="ellipse;whiteSpace=wrap;html=1;aspect=fixed;fillColor=#FF0000;" vertex="1" parent="6N_2MoYfHgcVI4_fVxiI-259">
          <mxGeometry x="9" width="80" height="80" as="geometry" />
        </mxCell>
        <mxCell id="6N_2MoYfHgcVI4_fVxiI-261" value="4" style="ellipse;whiteSpace=wrap;html=1;aspect=fixed;" vertex="1" parent="6N_2MoYfHgcVI4_fVxiI-259">
          <mxGeometry x="34" y="50" width="30" height="30" as="geometry" />
        </mxCell>
        <mxCell id="6N_2MoYfHgcVI4_fVxiI-262" value="" style="endArrow=none;html=1;rounded=0;" edge="1" parent="6N_2MoYfHgcVI4_fVxiI-259">
          <mxGeometry width="50" height="50" relative="1" as="geometry">
            <mxPoint x="49" y="150" as="sourcePoint" />
            <mxPoint x="49" y="80" as="targetPoint" />
          </mxGeometry>
        </mxCell>
        <mxCell id="6N_2MoYfHgcVI4_fVxiI-263" value="" style="endArrow=none;html=1;rounded=0;" edge="1" parent="6N_2MoYfHgcVI4_fVxiI-259">
          <mxGeometry width="50" height="50" relative="1" as="geometry">
            <mxPoint x="9" y="110" as="sourcePoint" />
            <mxPoint x="89" y="110" as="targetPoint" />
          </mxGeometry>
        </mxCell>
        <mxCell id="6N_2MoYfHgcVI4_fVxiI-264" value="0" style="text;html=1;align=center;verticalAlign=middle;resizable=0;points=[];autosize=1;strokeColor=none;fillColor=none;" vertex="1" parent="6N_2MoYfHgcVI4_fVxiI-259">
          <mxGeometry x="10" y="80" width="30" height="30" as="geometry" />
        </mxCell>
        <mxCell id="6N_2MoYfHgcVI4_fVxiI-265" value="4" style="text;html=1;align=center;verticalAlign=middle;resizable=0;points=[];autosize=1;strokeColor=none;fillColor=none;" vertex="1" parent="6N_2MoYfHgcVI4_fVxiI-259">
          <mxGeometry x="49" y="79" width="30" height="30" as="geometry" />
        </mxCell>
        <mxCell id="6N_2MoYfHgcVI4_fVxiI-266" value="4" style="text;html=1;align=center;verticalAlign=middle;resizable=0;points=[];autosize=1;strokeColor=none;fillColor=none;" vertex="1" parent="6N_2MoYfHgcVI4_fVxiI-259">
          <mxGeometry x="57" y="115" width="30" height="30" as="geometry" />
        </mxCell>
        <mxCell id="6N_2MoYfHgcVI4_fVxiI-267" value="0" style="text;html=1;align=center;verticalAlign=middle;resizable=0;points=[];autosize=1;strokeColor=none;fillColor=none;" vertex="1" parent="6N_2MoYfHgcVI4_fVxiI-259">
          <mxGeometry x="12" y="114" width="30" height="30" as="geometry" />
        </mxCell>
        <mxCell id="6N_2MoYfHgcVI4_fVxiI-268" value="" style="group" vertex="1" connectable="0" parent="1">
          <mxGeometry x="550" y="1340" width="97" height="150" as="geometry" />
        </mxCell>
        <mxCell id="6N_2MoYfHgcVI4_fVxiI-269" value="9" style="ellipse;whiteSpace=wrap;html=1;aspect=fixed;fillColor=#FF0000;" vertex="1" parent="6N_2MoYfHgcVI4_fVxiI-268">
          <mxGeometry x="9" width="80" height="80" as="geometry" />
        </mxCell>
        <mxCell id="6N_2MoYfHgcVI4_fVxiI-270" value="4" style="ellipse;whiteSpace=wrap;html=1;aspect=fixed;" vertex="1" parent="6N_2MoYfHgcVI4_fVxiI-268">
          <mxGeometry x="34" y="50" width="30" height="30" as="geometry" />
        </mxCell>
        <mxCell id="6N_2MoYfHgcVI4_fVxiI-271" value="" style="endArrow=none;html=1;rounded=0;" edge="1" parent="6N_2MoYfHgcVI4_fVxiI-268">
          <mxGeometry width="50" height="50" relative="1" as="geometry">
            <mxPoint x="49" y="150" as="sourcePoint" />
            <mxPoint x="49" y="80" as="targetPoint" />
          </mxGeometry>
        </mxCell>
        <mxCell id="6N_2MoYfHgcVI4_fVxiI-272" value="" style="endArrow=none;html=1;rounded=0;" edge="1" parent="6N_2MoYfHgcVI4_fVxiI-268">
          <mxGeometry width="50" height="50" relative="1" as="geometry">
            <mxPoint x="9" y="110" as="sourcePoint" />
            <mxPoint x="89" y="110" as="targetPoint" />
          </mxGeometry>
        </mxCell>
        <mxCell id="6N_2MoYfHgcVI4_fVxiI-273" value="0" style="text;html=1;align=center;verticalAlign=middle;resizable=0;points=[];autosize=1;strokeColor=none;fillColor=none;" vertex="1" parent="6N_2MoYfHgcVI4_fVxiI-268">
          <mxGeometry x="10" y="80" width="30" height="30" as="geometry" />
        </mxCell>
        <mxCell id="6N_2MoYfHgcVI4_fVxiI-274" value="4" style="text;html=1;align=center;verticalAlign=middle;resizable=0;points=[];autosize=1;strokeColor=none;fillColor=none;" vertex="1" parent="6N_2MoYfHgcVI4_fVxiI-268">
          <mxGeometry x="49" y="79" width="30" height="30" as="geometry" />
        </mxCell>
        <mxCell id="6N_2MoYfHgcVI4_fVxiI-275" value="4" style="text;html=1;align=center;verticalAlign=middle;resizable=0;points=[];autosize=1;strokeColor=none;fillColor=none;" vertex="1" parent="6N_2MoYfHgcVI4_fVxiI-268">
          <mxGeometry x="57" y="115" width="30" height="30" as="geometry" />
        </mxCell>
        <mxCell id="6N_2MoYfHgcVI4_fVxiI-276" value="0" style="text;html=1;align=center;verticalAlign=middle;resizable=0;points=[];autosize=1;strokeColor=none;fillColor=none;" vertex="1" parent="6N_2MoYfHgcVI4_fVxiI-268">
          <mxGeometry x="12" y="114" width="30" height="30" as="geometry" />
        </mxCell>
        <mxCell id="6N_2MoYfHgcVI4_fVxiI-277" value="" style="group" vertex="1" connectable="0" parent="1">
          <mxGeometry x="550" y="1169" width="97" height="150" as="geometry" />
        </mxCell>
        <mxCell id="6N_2MoYfHgcVI4_fVxiI-278" value="8" style="ellipse;whiteSpace=wrap;html=1;aspect=fixed;fillColor=#FF0000;" vertex="1" parent="6N_2MoYfHgcVI4_fVxiI-277">
          <mxGeometry x="9" width="80" height="80" as="geometry" />
        </mxCell>
        <mxCell id="6N_2MoYfHgcVI4_fVxiI-279" value="4" style="ellipse;whiteSpace=wrap;html=1;aspect=fixed;" vertex="1" parent="6N_2MoYfHgcVI4_fVxiI-277">
          <mxGeometry x="34" y="50" width="30" height="30" as="geometry" />
        </mxCell>
        <mxCell id="6N_2MoYfHgcVI4_fVxiI-280" value="" style="endArrow=none;html=1;rounded=0;" edge="1" parent="6N_2MoYfHgcVI4_fVxiI-277">
          <mxGeometry width="50" height="50" relative="1" as="geometry">
            <mxPoint x="49" y="150" as="sourcePoint" />
            <mxPoint x="49" y="80" as="targetPoint" />
          </mxGeometry>
        </mxCell>
        <mxCell id="6N_2MoYfHgcVI4_fVxiI-281" value="" style="endArrow=none;html=1;rounded=0;" edge="1" parent="6N_2MoYfHgcVI4_fVxiI-277">
          <mxGeometry width="50" height="50" relative="1" as="geometry">
            <mxPoint x="9" y="110" as="sourcePoint" />
            <mxPoint x="89" y="110" as="targetPoint" />
          </mxGeometry>
        </mxCell>
        <mxCell id="6N_2MoYfHgcVI4_fVxiI-282" value="0" style="text;html=1;align=center;verticalAlign=middle;resizable=0;points=[];autosize=1;strokeColor=none;fillColor=none;" vertex="1" parent="6N_2MoYfHgcVI4_fVxiI-277">
          <mxGeometry x="10" y="80" width="30" height="30" as="geometry" />
        </mxCell>
        <mxCell id="6N_2MoYfHgcVI4_fVxiI-283" value="4" style="text;html=1;align=center;verticalAlign=middle;resizable=0;points=[];autosize=1;strokeColor=none;fillColor=none;" vertex="1" parent="6N_2MoYfHgcVI4_fVxiI-277">
          <mxGeometry x="49" y="79" width="30" height="30" as="geometry" />
        </mxCell>
        <mxCell id="6N_2MoYfHgcVI4_fVxiI-284" value="4" style="text;html=1;align=center;verticalAlign=middle;resizable=0;points=[];autosize=1;strokeColor=none;fillColor=none;" vertex="1" parent="6N_2MoYfHgcVI4_fVxiI-277">
          <mxGeometry x="57" y="115" width="30" height="30" as="geometry" />
        </mxCell>
        <mxCell id="6N_2MoYfHgcVI4_fVxiI-285" value="0" style="text;html=1;align=center;verticalAlign=middle;resizable=0;points=[];autosize=1;strokeColor=none;fillColor=none;" vertex="1" parent="6N_2MoYfHgcVI4_fVxiI-277">
          <mxGeometry x="12" y="114" width="30" height="30" as="geometry" />
        </mxCell>
        <mxCell id="6N_2MoYfHgcVI4_fVxiI-286" value="" style="group" vertex="1" connectable="0" parent="1">
          <mxGeometry x="550" y="1010" width="97" height="150" as="geometry" />
        </mxCell>
        <mxCell id="6N_2MoYfHgcVI4_fVxiI-287" value="7" style="ellipse;whiteSpace=wrap;html=1;aspect=fixed;" vertex="1" parent="6N_2MoYfHgcVI4_fVxiI-286">
          <mxGeometry x="9" width="80" height="80" as="geometry" />
        </mxCell>
        <mxCell id="6N_2MoYfHgcVI4_fVxiI-288" value="3" style="ellipse;whiteSpace=wrap;html=1;aspect=fixed;" vertex="1" parent="6N_2MoYfHgcVI4_fVxiI-286">
          <mxGeometry x="34" y="50" width="30" height="30" as="geometry" />
        </mxCell>
        <mxCell id="6N_2MoYfHgcVI4_fVxiI-289" value="" style="endArrow=none;html=1;rounded=0;" edge="1" parent="6N_2MoYfHgcVI4_fVxiI-286">
          <mxGeometry width="50" height="50" relative="1" as="geometry">
            <mxPoint x="49" y="150" as="sourcePoint" />
            <mxPoint x="49" y="80" as="targetPoint" />
          </mxGeometry>
        </mxCell>
        <mxCell id="6N_2MoYfHgcVI4_fVxiI-290" value="" style="endArrow=none;html=1;rounded=0;" edge="1" parent="6N_2MoYfHgcVI4_fVxiI-286">
          <mxGeometry width="50" height="50" relative="1" as="geometry">
            <mxPoint x="9" y="110" as="sourcePoint" />
            <mxPoint x="89" y="110" as="targetPoint" />
          </mxGeometry>
        </mxCell>
        <mxCell id="6N_2MoYfHgcVI4_fVxiI-291" value="0" style="text;html=1;align=center;verticalAlign=middle;resizable=0;points=[];autosize=1;strokeColor=none;fillColor=none;" vertex="1" parent="6N_2MoYfHgcVI4_fVxiI-286">
          <mxGeometry x="10" y="80" width="30" height="30" as="geometry" />
        </mxCell>
        <mxCell id="6N_2MoYfHgcVI4_fVxiI-292" value="3" style="text;html=1;align=center;verticalAlign=middle;resizable=0;points=[];autosize=1;strokeColor=none;fillColor=none;" vertex="1" parent="6N_2MoYfHgcVI4_fVxiI-286">
          <mxGeometry x="49" y="79" width="30" height="30" as="geometry" />
        </mxCell>
        <mxCell id="6N_2MoYfHgcVI4_fVxiI-293" value="4" style="text;html=1;align=center;verticalAlign=middle;resizable=0;points=[];autosize=1;strokeColor=none;fillColor=none;" vertex="1" parent="6N_2MoYfHgcVI4_fVxiI-286">
          <mxGeometry x="57" y="115" width="30" height="30" as="geometry" />
        </mxCell>
        <mxCell id="6N_2MoYfHgcVI4_fVxiI-294" value="1" style="text;html=1;align=center;verticalAlign=middle;resizable=0;points=[];autosize=1;strokeColor=none;fillColor=none;" vertex="1" parent="6N_2MoYfHgcVI4_fVxiI-286">
          <mxGeometry x="12" y="114" width="30" height="30" as="geometry" />
        </mxCell>
        <mxCell id="6N_2MoYfHgcVI4_fVxiI-336" value="" style="group" vertex="1" connectable="0" parent="1">
          <mxGeometry x="-690" y="1559" width="730" height="2100" as="geometry" />
        </mxCell>
        <mxCell id="6N_2MoYfHgcVI4_fVxiI-337" value="7" style="swimlane;startSize=0;fillColor=none;strokeColor=#6c8ebf;gradientColor=none;swimlaneFillColor=#f6f6f7;movable=1;resizable=1;rotatable=1;deletable=1;editable=1;locked=0;connectable=1;" vertex="1" parent="6N_2MoYfHgcVI4_fVxiI-336">
          <mxGeometry width="730.0000000000001" height="2100" as="geometry" />
        </mxCell>
        <mxCell id="6N_2MoYfHgcVI4_fVxiI-338" value="&lt;font style=&quot;font-size: 22px;&quot;&gt;Requerimiento&lt;/font&gt;" style="text;html=1;align=center;verticalAlign=middle;resizable=0;points=[];autosize=1;strokeColor=none;fillColor=none;" vertex="1" parent="6N_2MoYfHgcVI4_fVxiI-337">
          <mxGeometry x="228.12500000000006" y="31.00393700787401" width="170" height="40" as="geometry" />
        </mxCell>
        <mxCell id="6N_2MoYfHgcVI4_fVxiI-339" value="&lt;font style=&quot;font-size: 22px;&quot;&gt;Predecesores&lt;/font&gt;" style="text;html=1;align=center;verticalAlign=middle;resizable=0;points=[];autosize=1;strokeColor=none;fillColor=none;" vertex="1" parent="6N_2MoYfHgcVI4_fVxiI-337">
          <mxGeometry x="415.6770833333334" y="31.00393700787401" width="160" height="40" as="geometry" />
        </mxCell>
        <mxCell id="6N_2MoYfHgcVI4_fVxiI-340" value="&lt;font style=&quot;font-size: 22px;&quot;&gt;DuraciÃ³n(hs)&lt;/font&gt;" style="text;html=1;align=center;verticalAlign=middle;resizable=0;points=[];autosize=1;strokeColor=none;fillColor=none;" vertex="1" parent="6N_2MoYfHgcVI4_fVxiI-337">
          <mxGeometry x="569.4270833333334" y="31.83070866141732" width="150" height="40" as="geometry" />
        </mxCell>
        <mxCell id="6N_2MoYfHgcVI4_fVxiI-341" value="&lt;font color=&quot;#ffffff&quot;&gt;Panel de Editores HTML&lt;/font&gt;" style="rounded=1;whiteSpace=wrap;html=1;fillColor=#75B3F9;fontColor=#9da6b0;strokeColor=none;gradientColor=none;fontSize=20;fontStyle=1;imageWidth=59;" vertex="1" parent="6N_2MoYfHgcVI4_fVxiI-337">
          <mxGeometry x="167.29166666666669" y="479.5275590551181" width="254.73958333333337" height="66.96850393700787" as="geometry" />
        </mxCell>
        <mxCell id="6N_2MoYfHgcVI4_fVxiI-342" value="" style="rounded=1;whiteSpace=wrap;html=1;fillColor=#75B3F9;fontColor=#9da6b0;strokeColor=none;gradientColor=none;fontSize=20;fontStyle=1" vertex="1" parent="6N_2MoYfHgcVI4_fVxiI-337">
          <mxGeometry x="454.72916666666674" y="480.35433070866145" width="91.25000000000001" height="66.14173228346456" as="geometry" />
        </mxCell>
        <mxCell id="6N_2MoYfHgcVI4_fVxiI-343" value="&lt;font color=&quot;#ffffff&quot;&gt;3&lt;/font&gt;" style="rounded=1;whiteSpace=wrap;html=1;fillColor=#75B3F9;fontColor=#9da6b0;strokeColor=none;gradientColor=none;fontSize=20;fontStyle=1" vertex="1" parent="6N_2MoYfHgcVI4_fVxiI-337">
          <mxGeometry x="576.3958333333334" y="480.35433070866145" width="91.25000000000001" height="66.14173228346456" as="geometry" />
        </mxCell>
        <mxCell id="6N_2MoYfHgcVI4_fVxiI-344" value="Crear func. advertencia" style="rounded=1;whiteSpace=wrap;html=1;fillColor=#A3CBFB;gradientColor=none;strokeColor=#6c8ebf;fontSize=20;fontStyle=1;fontColor=#9da6b0;imageWidth=59;" vertex="1" parent="6N_2MoYfHgcVI4_fVxiI-337">
          <mxGeometry x="167.29166666666669" y="578.7401574803149" width="182.50000000000003" height="66.14173228346456" as="geometry" />
        </mxCell>
        <mxCell id="6N_2MoYfHgcVI4_fVxiI-345" value="" style="rounded=1;whiteSpace=wrap;html=1;fillColor=#A3CBFB;gradientColor=none;strokeColor=#6c8ebf;fontSize=20;fontStyle=1;fontColor=#9da6b0;" vertex="1" parent="6N_2MoYfHgcVI4_fVxiI-337">
          <mxGeometry x="454.72916666666674" y="578.7401574803149" width="91.25000000000001" height="66.14173228346456" as="geometry" />
        </mxCell>
        <mxCell id="6N_2MoYfHgcVI4_fVxiI-346" value="" style="rounded=1;whiteSpace=wrap;html=1;fillColor=#A3CBFB;gradientColor=none;strokeColor=#6c8ebf;fontSize=20;fontStyle=1;fontColor=#9da6b0;" vertex="1" parent="6N_2MoYfHgcVI4_fVxiI-337">
          <mxGeometry x="576.3958333333334" y="578.7401574803149" width="91.25000000000001" height="66.14173228346456" as="geometry" />
        </mxCell>
        <mxCell id="6N_2MoYfHgcVI4_fVxiI-347" value="Parrila Semanal HTML&amp;nbsp;" style="rounded=1;whiteSpace=wrap;html=1;fillColor=#A3CBFB;gradientColor=none;strokeColor=none;fontSize=20;fontStyle=1;fontColor=#9da6b0;imageWidth=59;" vertex="1" parent="6N_2MoYfHgcVI4_fVxiI-337">
          <mxGeometry x="167.29166666666669" y="678.7795275590552" width="254.73958333333337" height="66.14173228346456" as="geometry" />
        </mxCell>
        <mxCell id="6N_2MoYfHgcVI4_fVxiI-348" value="" style="rounded=1;whiteSpace=wrap;html=1;fillColor=#A3CBFB;gradientColor=none;strokeColor=none;fontSize=20;fontStyle=1;fontColor=#9da6b0;" vertex="1" parent="6N_2MoYfHgcVI4_fVxiI-337">
          <mxGeometry x="454.72916666666674" y="678.7795275590552" width="91.25000000000001" height="66.14173228346456" as="geometry" />
        </mxCell>
        <mxCell id="6N_2MoYfHgcVI4_fVxiI-349" value="3" style="rounded=1;whiteSpace=wrap;html=1;fillColor=#A3CBFB;gradientColor=none;strokeColor=none;fontSize=20;fontStyle=1;fontColor=#9da6b0;" vertex="1" parent="6N_2MoYfHgcVI4_fVxiI-337">
          <mxGeometry x="576.3958333333334" y="678.7795275590552" width="91.25000000000001" height="66.14173228346456" as="geometry" />
        </mxCell>
        <mxCell id="6N_2MoYfHgcVI4_fVxiI-350" value="Parrilla Semanal CSS" style="rounded=1;whiteSpace=wrap;html=1;fillColor=#A3CBFB;gradientColor=none;strokeColor=none;fontSize=20;fontStyle=1;fontColor=#9da6b0;imageWidth=59;" vertex="1" parent="6N_2MoYfHgcVI4_fVxiI-337">
          <mxGeometry x="167.29166666666669" y="777.1653543307087" width="254.73958333333337" height="66.14173228346456" as="geometry" />
        </mxCell>
        <mxCell id="6N_2MoYfHgcVI4_fVxiI-351" value="" style="rounded=1;whiteSpace=wrap;html=1;fillColor=#A3CBFB;gradientColor=none;strokeColor=none;fontSize=20;fontStyle=1;fontColor=#9da6b0;" vertex="1" parent="6N_2MoYfHgcVI4_fVxiI-337">
          <mxGeometry x="454.72916666666674" y="777.1653543307087" width="91.25000000000001" height="66.14173228346456" as="geometry" />
        </mxCell>
        <mxCell id="6N_2MoYfHgcVI4_fVxiI-352" value="4" style="rounded=1;whiteSpace=wrap;html=1;fillColor=#A3CBFB;gradientColor=none;strokeColor=none;fontSize=20;fontStyle=1;fontColor=#9da6b0;" vertex="1" parent="6N_2MoYfHgcVI4_fVxiI-337">
          <mxGeometry x="576.3958333333334" y="777.1653543307087" width="91.25000000000001" height="66.14173228346456" as="geometry" />
        </mxCell>
        <mxCell id="6N_2MoYfHgcVI4_fVxiI-353" value="Estado De Programacion&amp;nbsp; y&lt;br style=&quot;border-color: var(--border-color);&quot;&gt;Aprobacion CSS" style="rounded=1;whiteSpace=wrap;html=1;fillColor=#A3CBFB;strokeColor=none;gradientColor=none;fontSize=20;fontStyle=1;fontColor=#9da6b0;imageWidth=59;" vertex="1" parent="6N_2MoYfHgcVI4_fVxiI-337">
          <mxGeometry x="167.29166666666669" y="877.2047244094488" width="254.73958333333337" height="66.14173228346456" as="geometry" />
        </mxCell>
        <mxCell id="6N_2MoYfHgcVI4_fVxiI-354" value="" style="rounded=1;whiteSpace=wrap;html=1;fillColor=#A3CBFB;strokeColor=none;gradientColor=none;fontSize=20;fontStyle=1;fontColor=#9da6b0;" vertex="1" parent="6N_2MoYfHgcVI4_fVxiI-337">
          <mxGeometry x="454.72916666666674" y="877.2047244094488" width="91.25000000000001" height="66.14173228346456" as="geometry" />
        </mxCell>
        <mxCell id="6N_2MoYfHgcVI4_fVxiI-355" value="4" style="rounded=1;whiteSpace=wrap;html=1;fillColor=#A3CBFB;strokeColor=none;gradientColor=none;fontSize=20;fontStyle=1;fontColor=#9da6b0;" vertex="1" parent="6N_2MoYfHgcVI4_fVxiI-337">
          <mxGeometry x="576.3958333333334" y="877.2047244094488" width="91.25000000000001" height="66.14173228346456" as="geometry" />
        </mxCell>
        <mxCell id="6N_2MoYfHgcVI4_fVxiI-356" value="Estado De Programacion y AProbacion HTML" style="rounded=1;whiteSpace=wrap;html=1;fillColor=#A3CBFB;strokeColor=none;gradientColor=none;fontSize=20;fontStyle=1;fontColor=#9da6b0;imageWidth=59;" vertex="1" parent="6N_2MoYfHgcVI4_fVxiI-337">
          <mxGeometry x="167.29166666666669" y="975.5905511811025" width="254.73958333333337" height="66.14173228346456" as="geometry" />
        </mxCell>
        <mxCell id="6N_2MoYfHgcVI4_fVxiI-357" value="" style="rounded=1;whiteSpace=wrap;html=1;fillColor=#A3CBFB;strokeColor=none;gradientColor=none;fontSize=20;fontStyle=1;fontColor=#9da6b0;" vertex="1" parent="6N_2MoYfHgcVI4_fVxiI-337">
          <mxGeometry x="454.72916666666674" y="975.5905511811025" width="91.25000000000001" height="66.14173228346456" as="geometry" />
        </mxCell>
        <mxCell id="6N_2MoYfHgcVI4_fVxiI-358" value="4" style="rounded=1;whiteSpace=wrap;html=1;fillColor=#A3CBFB;strokeColor=none;gradientColor=none;fontSize=20;fontStyle=1;fontColor=#9da6b0;" vertex="1" parent="6N_2MoYfHgcVI4_fVxiI-337">
          <mxGeometry x="576.3958333333334" y="975.5905511811025" width="91.25000000000001" height="66.14173228346456" as="geometry" />
        </mxCell>
        <mxCell id="6N_2MoYfHgcVI4_fVxiI-359" value="CSS Apartado de Emision" style="rounded=1;whiteSpace=wrap;html=1;fillColor=#A3CBFB;strokeColor=none;gradientColor=none;fontSize=20;fontStyle=1;fontColor=#9da6b0;imageWidth=59;" vertex="1" parent="6N_2MoYfHgcVI4_fVxiI-337">
          <mxGeometry x="167.29166666666669" y="1075.6299212598424" width="254.73958333333337" height="66.14173228346456" as="geometry" />
        </mxCell>
        <mxCell id="6N_2MoYfHgcVI4_fVxiI-360" value="Panel de Administradores HTML" style="rounded=1;whiteSpace=wrap;html=1;fillColor=#A3CBFB;strokeColor=none;gradientColor=none;fontSize=20;fontStyle=1;fontColor=#9da6b0;imageWidth=59;" vertex="1" parent="6N_2MoYfHgcVI4_fVxiI-337">
          <mxGeometry x="167.29166666666669" y="1182.283464566929" width="254.73958333333337" height="66.14173228346456" as="geometry" />
        </mxCell>
        <mxCell id="6N_2MoYfHgcVI4_fVxiI-361" value="" style="rounded=1;whiteSpace=wrap;html=1;fillColor=#A3CBFB;strokeColor=none;gradientColor=none;fontSize=20;fontStyle=1;fontColor=#9da6b0;" vertex="1" parent="6N_2MoYfHgcVI4_fVxiI-337">
          <mxGeometry x="454.72916666666674" y="1075.6299212598424" width="91.25000000000001" height="66.14173228346456" as="geometry" />
        </mxCell>
        <mxCell id="6N_2MoYfHgcVI4_fVxiI-362" value="" style="rounded=1;whiteSpace=wrap;html=1;fillColor=#A3CBFB;strokeColor=none;gradientColor=none;fontSize=20;fontStyle=1;fontColor=#9da6b0;" vertex="1" parent="6N_2MoYfHgcVI4_fVxiI-337">
          <mxGeometry x="454.72916666666674" y="1182.283464566929" width="91.25000000000001" height="66.14173228346456" as="geometry" />
        </mxCell>
        <mxCell id="6N_2MoYfHgcVI4_fVxiI-363" value="4" style="rounded=1;whiteSpace=wrap;html=1;fillColor=#A3CBFB;strokeColor=none;gradientColor=none;fontSize=20;fontStyle=1;fontColor=#9da6b0;" vertex="1" parent="6N_2MoYfHgcVI4_fVxiI-337">
          <mxGeometry x="576.3958333333334" y="1075.6299212598424" width="91.25000000000001" height="66.14173228346456" as="geometry" />
        </mxCell>
        <mxCell id="6N_2MoYfHgcVI4_fVxiI-364" value="3" style="rounded=1;whiteSpace=wrap;html=1;fillColor=#A3CBFB;strokeColor=none;gradientColor=none;fontSize=20;fontStyle=1;fontColor=#9da6b0;" vertex="1" parent="6N_2MoYfHgcVI4_fVxiI-337">
          <mxGeometry x="576.3958333333334" y="1182.283464566929" width="91.25000000000001" height="66.14173228346456" as="geometry" />
        </mxCell>
        <mxCell id="6N_2MoYfHgcVI4_fVxiI-365" value="&lt;font color=&quot;#ffffff&quot;&gt;CSS Panel De Editores CSS&lt;/font&gt;" style="rounded=1;whiteSpace=wrap;html=1;fillColor=#75B3F9;gradientColor=none;strokeColor=none;fontSize=20;fontStyle=1;fontColor=#9da6b0;imageWidth=59;" vertex="1" parent="6N_2MoYfHgcVI4_fVxiI-337">
          <mxGeometry x="167.29166666666669" y="578.7401574803149" width="254.73958333333337" height="66.14173228346456" as="geometry" />
        </mxCell>
        <mxCell id="6N_2MoYfHgcVI4_fVxiI-366" value="" style="rounded=1;whiteSpace=wrap;html=1;fillColor=#75B3F9;gradientColor=none;strokeColor=none;fontSize=20;fontStyle=1;fontColor=#9da6b0;" vertex="1" parent="6N_2MoYfHgcVI4_fVxiI-337">
          <mxGeometry x="454.72916666666674" y="578.7401574803149" width="91.25000000000001" height="66.14173228346456" as="geometry" />
        </mxCell>
        <mxCell id="6N_2MoYfHgcVI4_fVxiI-367" value="&lt;font color=&quot;#ffffff&quot;&gt;4&lt;/font&gt;" style="rounded=1;whiteSpace=wrap;html=1;fillColor=#75B3F9;gradientColor=none;strokeColor=none;fontSize=20;fontStyle=1;fontColor=#9da6b0;" vertex="1" parent="6N_2MoYfHgcVI4_fVxiI-337">
          <mxGeometry x="576.3958333333334" y="578.7401574803149" width="91.25000000000001" height="66.14173228346456" as="geometry" />
        </mxCell>
        <mxCell id="6N_2MoYfHgcVI4_fVxiI-368" value="CSS Panel de Administradores" style="rounded=1;whiteSpace=wrap;html=1;fillColor=#C7DBF4;strokeColor=none;gradientColor=none;fontSize=20;fontStyle=1;fontColor=#9da6b0;imageWidth=59;" vertex="1" parent="6N_2MoYfHgcVI4_fVxiI-337">
          <mxGeometry x="172.61458333333334" y="1288.523622047244" width="254.73958333333337" height="66.14173228346456" as="geometry" />
        </mxCell>
        <mxCell id="6N_2MoYfHgcVI4_fVxiI-369" value="" style="rounded=1;whiteSpace=wrap;html=1;fillColor=#C7DBF4;strokeColor=none;gradientColor=none;fontSize=20;fontStyle=1;fontColor=#9da6b0;" vertex="1" parent="6N_2MoYfHgcVI4_fVxiI-337">
          <mxGeometry x="460.0520833333334" y="1288.523622047244" width="91.25000000000001" height="66.14173228346456" as="geometry" />
        </mxCell>
        <mxCell id="6N_2MoYfHgcVI4_fVxiI-370" value="4" style="rounded=1;whiteSpace=wrap;html=1;fillColor=#C7DBF4;strokeColor=none;gradientColor=none;fontSize=20;fontStyle=1;fontColor=#9da6b0;" vertex="1" parent="6N_2MoYfHgcVI4_fVxiI-337">
          <mxGeometry x="581.71875" y="1288.523622047244" width="91.25000000000001" height="66.14173228346456" as="geometry" />
        </mxCell>
        <mxCell id="6N_2MoYfHgcVI4_fVxiI-371" value="Crear Pagina de Reportes ( todo ) CSS" style="rounded=1;whiteSpace=wrap;html=1;fillColor=#C7DBF4;strokeColor=none;gradientColor=none;fontSize=20;fontStyle=1;fontColor=#9da6b0;imageWidth=59;" vertex="1" parent="6N_2MoYfHgcVI4_fVxiI-337">
          <mxGeometry x="174.13541666666669" y="1380.708661417323" width="254.73958333333337" height="66.14173228346456" as="geometry" />
        </mxCell>
        <mxCell id="6N_2MoYfHgcVI4_fVxiI-372" value="" style="rounded=1;whiteSpace=wrap;html=1;fillColor=#C7DBF4;strokeColor=none;gradientColor=none;fontSize=20;fontStyle=1;fontColor=#9da6b0;" vertex="1" parent="6N_2MoYfHgcVI4_fVxiI-337">
          <mxGeometry x="461.57291666666674" y="1380.708661417323" width="91.25000000000001" height="66.14173228346456" as="geometry" />
        </mxCell>
        <mxCell id="6N_2MoYfHgcVI4_fVxiI-373" value="4" style="rounded=1;whiteSpace=wrap;html=1;fillColor=#C7DBF4;strokeColor=none;gradientColor=none;fontSize=20;fontStyle=1;fontColor=#9da6b0;" vertex="1" parent="6N_2MoYfHgcVI4_fVxiI-337">
          <mxGeometry x="583.2395833333334" y="1380.708661417323" width="91.25000000000001" height="66.14173228346456" as="geometry" />
        </mxCell>
        <mxCell id="6N_2MoYfHgcVI4_fVxiI-374" value="Crear Apartado de Frecuencia HTML" style="rounded=1;whiteSpace=wrap;html=1;fillColor=#DEE7F4;strokeColor=none;gradientColor=none;fontSize=20;fontStyle=1;fontColor=#9da6b0;imageWidth=59;" vertex="1" parent="6N_2MoYfHgcVI4_fVxiI-337">
          <mxGeometry x="174.13541666666669" y="1661.811023622047" width="254.73958333333337" height="66.14173228346456" as="geometry" />
        </mxCell>
        <mxCell id="6N_2MoYfHgcVI4_fVxiI-375" value="Crear Apartado de Distrubucion HTML" style="rounded=1;whiteSpace=wrap;html=1;fillColor=#DEE7F4;strokeColor=none;gradientColor=none;fontSize=20;fontStyle=1;fontColor=#9da6b0;imageWidth=59;" vertex="1" parent="6N_2MoYfHgcVI4_fVxiI-337">
          <mxGeometry x="174.13541666666669" y="1752.7559055118109" width="254.73958333333337" height="66.14173228346456" as="geometry" />
        </mxCell>
        <mxCell id="6N_2MoYfHgcVI4_fVxiI-376" value="Crear Apartado de Audiencia&amp;nbsp; HTML" style="rounded=1;whiteSpace=wrap;html=1;fillColor=#C7DBF4;strokeColor=none;gradientColor=none;fontSize=20;fontStyle=1;fontColor=#9da6b0;imageWidth=59;" vertex="1" parent="6N_2MoYfHgcVI4_fVxiI-337">
          <mxGeometry x="172.61458333333334" y="1479.9212598425197" width="254.73958333333337" height="66.14173228346456" as="geometry" />
        </mxCell>
        <mxCell id="6N_2MoYfHgcVI4_fVxiI-377" value="" style="rounded=1;whiteSpace=wrap;html=1;fillColor=#DEE7F4;strokeColor=none;gradientColor=none;fontSize=20;fontStyle=1;fontColor=#9da6b0;" vertex="1" parent="6N_2MoYfHgcVI4_fVxiI-337">
          <mxGeometry x="461.57291666666674" y="1661.811023622047" width="91.25000000000001" height="66.14173228346456" as="geometry" />
        </mxCell>
        <mxCell id="6N_2MoYfHgcVI4_fVxiI-378" value="" style="rounded=1;whiteSpace=wrap;html=1;fillColor=#DEE7F4;strokeColor=none;gradientColor=none;fontSize=20;fontStyle=1;fontColor=#9da6b0;" vertex="1" parent="6N_2MoYfHgcVI4_fVxiI-337">
          <mxGeometry x="461.57291666666674" y="1752.7559055118109" width="91.25000000000001" height="66.14173228346456" as="geometry" />
        </mxCell>
        <mxCell id="6N_2MoYfHgcVI4_fVxiI-379" value="" style="rounded=1;whiteSpace=wrap;html=1;fillColor=#C7DBF4;strokeColor=none;gradientColor=none;fontSize=20;fontStyle=1;fontColor=#9da6b0;" vertex="1" parent="6N_2MoYfHgcVI4_fVxiI-337">
          <mxGeometry x="460.0520833333334" y="1479.9212598425197" width="91.25000000000001" height="66.14173228346456" as="geometry" />
        </mxCell>
        <mxCell id="6N_2MoYfHgcVI4_fVxiI-380" value="3" style="rounded=1;whiteSpace=wrap;html=1;fillColor=#DEE7F4;strokeColor=none;gradientColor=none;fontSize=20;fontStyle=1;fontColor=#9da6b0;" vertex="1" parent="6N_2MoYfHgcVI4_fVxiI-337">
          <mxGeometry x="583.2395833333334" y="1661.811023622047" width="91.25000000000001" height="66.14173228346456" as="geometry" />
        </mxCell>
        <mxCell id="6N_2MoYfHgcVI4_fVxiI-381" value="3" style="rounded=1;whiteSpace=wrap;html=1;fillColor=#DEE7F4;strokeColor=none;gradientColor=none;fontSize=20;fontStyle=1;fontColor=#9da6b0;" vertex="1" parent="6N_2MoYfHgcVI4_fVxiI-337">
          <mxGeometry x="583.2395833333334" y="1752.7559055118109" width="91.25000000000001" height="66.14173228346456" as="geometry" />
        </mxCell>
        <mxCell id="6N_2MoYfHgcVI4_fVxiI-382" value="3" style="rounded=1;whiteSpace=wrap;html=1;fillColor=#C7DBF4;strokeColor=none;gradientColor=none;fontSize=20;fontStyle=1;fontColor=#9da6b0;" vertex="1" parent="6N_2MoYfHgcVI4_fVxiI-337">
          <mxGeometry x="581.71875" y="1479.9212598425197" width="91.25000000000001" height="66.14173228346456" as="geometry" />
        </mxCell>
        <mxCell id="6N_2MoYfHgcVI4_fVxiI-383" value="Crear Apartado de Duracion HTML&amp;nbsp;" style="rounded=1;whiteSpace=wrap;html=1;fillColor=#C7DBF4;strokeColor=none;gradientColor=none;fontSize=20;fontStyle=1;fontColor=#9da6b0;imageWidth=59;" vertex="1" parent="6N_2MoYfHgcVI4_fVxiI-337">
          <mxGeometry x="172.61458333333334" y="1579.1338582677165" width="254.73958333333337" height="66.14173228346456" as="geometry" />
        </mxCell>
        <mxCell id="6N_2MoYfHgcVI4_fVxiI-384" value="" style="rounded=1;whiteSpace=wrap;html=1;fillColor=#C7DBF4;strokeColor=none;gradientColor=none;fontSize=20;fontStyle=1;fontColor=#9da6b0;" vertex="1" parent="6N_2MoYfHgcVI4_fVxiI-337">
          <mxGeometry x="460.0520833333334" y="1579.1338582677165" width="91.25000000000001" height="66.14173228346456" as="geometry" />
        </mxCell>
        <mxCell id="6N_2MoYfHgcVI4_fVxiI-385" value="3" style="rounded=1;whiteSpace=wrap;html=1;fillColor=#C7DBF4;strokeColor=none;gradientColor=none;fontSize=20;fontStyle=1;fontColor=#9da6b0;" vertex="1" parent="6N_2MoYfHgcVI4_fVxiI-337">
          <mxGeometry x="581.71875" y="1579.1338582677165" width="91.25000000000001" height="66.14173228346456" as="geometry" />
        </mxCell>
        <mxCell id="6N_2MoYfHgcVI4_fVxiI-389" value="Crear pagina de Gestion (roles, permisos y derechos" style="rounded=1;whiteSpace=wrap;html=1;fillColor=#DEE7F4;strokeColor=none;gradientColor=none;fontSize=20;fontStyle=1;fontColor=#9da6b0;imageWidth=59;" vertex="1" parent="6N_2MoYfHgcVI4_fVxiI-337">
          <mxGeometry x="175.65625000000003" y="1860.236220472441" width="254.73958333333337" height="66.14173228346456" as="geometry" />
        </mxCell>
        <mxCell id="6N_2MoYfHgcVI4_fVxiI-390" value="" style="rounded=1;whiteSpace=wrap;html=1;fillColor=#DEE7F4;strokeColor=none;gradientColor=none;fontSize=20;fontStyle=1;fontColor=#9da6b0;" vertex="1" parent="6N_2MoYfHgcVI4_fVxiI-337">
          <mxGeometry x="463.0937500000001" y="1860.236220472441" width="91.25000000000001" height="66.14173228346456" as="geometry" />
        </mxCell>
        <mxCell id="6N_2MoYfHgcVI4_fVxiI-391" value="4" style="rounded=1;whiteSpace=wrap;html=1;fillColor=#DEE7F4;strokeColor=none;gradientColor=none;fontSize=20;fontStyle=1;fontColor=#9da6b0;" vertex="1" parent="6N_2MoYfHgcVI4_fVxiI-337">
          <mxGeometry x="584.7604166666667" y="1860.236220472441" width="91.25000000000001" height="66.14173228346456" as="geometry" />
        </mxCell>
        <mxCell id="6N_2MoYfHgcVI4_fVxiI-392" value="" style="rounded=1;whiteSpace=wrap;html=1;fillColor=#75B3F9;gradientColor=none;strokeColor=none;fontSize=20;fontStyle=1;fontColor=#9da6b0;" vertex="1" parent="6N_2MoYfHgcVI4_fVxiI-337">
          <mxGeometry x="454.73" y="479.53" width="91.25000000000001" height="66.14173228346456" as="geometry" />
        </mxCell>
        <mxCell id="6N_2MoYfHgcVI4_fVxiI-393" value="Index HTML" style="rounded=1;whiteSpace=wrap;html=1;fillColor=#75b3f9;fontColor=#ffffff;strokeColor=none;gradientColor=none;fontSize=20;fontStyle=1;imageWidth=59;" vertex="1" parent="6N_2MoYfHgcVI4_fVxiI-336">
          <mxGeometry x="165.77083333333334" y="83.91732283464567" width="254.73958333333337" height="66.14173228346456" as="geometry" />
        </mxCell>
        <mxCell id="6N_2MoYfHgcVI4_fVxiI-394" value="" style="rounded=1;whiteSpace=wrap;html=1;fillColor=#75b3f9;fontColor=#ffffff;strokeColor=none;fontSize=20;fontStyle=1" vertex="1" parent="6N_2MoYfHgcVI4_fVxiI-336">
          <mxGeometry x="453.2083333333334" y="83.91732283464567" width="91.25000000000001" height="66.14173228346456" as="geometry" />
        </mxCell>
        <mxCell id="6N_2MoYfHgcVI4_fVxiI-395" value="" style="rounded=1;whiteSpace=wrap;html=1;fillColor=#75b3f9;fontColor=#ffffff;strokeColor=none;fontSize=20;fontStyle=1" vertex="1" parent="6N_2MoYfHgcVI4_fVxiI-336">
          <mxGeometry x="574.875" y="83.91732283464567" width="91.25000000000001" height="66.14173228346456" as="geometry" />
        </mxCell>
        <mxCell id="6N_2MoYfHgcVI4_fVxiI-396" value="" style="rounded=1;whiteSpace=wrap;html=1;fillColor=#75b3f9;fontColor=#ffffff;strokeColor=none;fontSize=20;fontStyle=1;imageWidth=59;" vertex="1" parent="6N_2MoYfHgcVI4_fVxiI-336">
          <mxGeometry x="165.77083333333334" y="183.95669291338584" width="182.50000000000003" height="66.14173228346456" as="geometry" />
        </mxCell>
        <mxCell id="6N_2MoYfHgcVI4_fVxiI-397" value="" style="rounded=1;whiteSpace=wrap;html=1;fillColor=#75b3f9;fontColor=#ffffff;strokeColor=none;fontSize=20;fontStyle=1" vertex="1" parent="6N_2MoYfHgcVI4_fVxiI-336">
          <mxGeometry x="453.2083333333334" y="183.95669291338584" width="91.25000000000001" height="66.14173228346456" as="geometry" />
        </mxCell>
        <mxCell id="6N_2MoYfHgcVI4_fVxiI-398" value="4" style="rounded=1;whiteSpace=wrap;html=1;fillColor=#75b3f9;fontColor=#ffffff;strokeColor=none;gradientColor=none;fontSize=20;fontStyle=1" vertex="1" parent="6N_2MoYfHgcVI4_fVxiI-336">
          <mxGeometry x="574.875" y="183.95669291338584" width="91.25000000000001" height="66.14173228346456" as="geometry" />
        </mxCell>
        <mxCell id="6N_2MoYfHgcVI4_fVxiI-399" value="Panel de Productores HTML" style="rounded=1;whiteSpace=wrap;html=1;fillColor=#75b3f9;fontColor=#ffffff;strokeColor=none;gradientColor=none;fontSize=20;fontStyle=1;imageWidth=59;" vertex="1" parent="6N_2MoYfHgcVI4_fVxiI-336">
          <mxGeometry x="165.77083333333334" y="282.34251968503935" width="254.73958333333337" height="66.14173228346456" as="geometry" />
        </mxCell>
        <mxCell id="6N_2MoYfHgcVI4_fVxiI-400" value="" style="rounded=1;whiteSpace=wrap;html=1;fillColor=#75b3f9;fontColor=#ffffff;strokeColor=none;gradientColor=none;fontSize=20;fontStyle=1" vertex="1" parent="6N_2MoYfHgcVI4_fVxiI-336">
          <mxGeometry x="453.2083333333334" y="282.34251968503935" width="91.25000000000001" height="66.14173228346456" as="geometry" />
        </mxCell>
        <mxCell id="6N_2MoYfHgcVI4_fVxiI-401" value="3" style="rounded=1;whiteSpace=wrap;html=1;fillColor=#75b3f9;fontColor=#ffffff;strokeColor=none;gradientColor=none;fontSize=20;fontStyle=1" vertex="1" parent="6N_2MoYfHgcVI4_fVxiI-336">
          <mxGeometry x="574.875" y="282.34251968503935" width="91.25000000000001" height="66.14173228346456" as="geometry" />
        </mxCell>
        <mxCell id="6N_2MoYfHgcVI4_fVxiI-402" value="" style="rounded=1;whiteSpace=wrap;html=1;fillColor=#a3cbfb;fontColor=#ffffff;strokeColor=none;fontSize=20;fontStyle=1;gradientColor=none;imageWidth=59;" vertex="1" parent="6N_2MoYfHgcVI4_fVxiI-336">
          <mxGeometry x="165.77083333333334" y="382.3818897637795" width="182.50000000000003" height="66.14173228346456" as="geometry" />
        </mxCell>
        <mxCell id="6N_2MoYfHgcVI4_fVxiI-403" value="" style="rounded=1;whiteSpace=wrap;html=1;fillColor=#a3cbfb;fontColor=#ffffff;strokeColor=none;fontSize=20;fontStyle=1;gradientColor=none;" vertex="1" parent="6N_2MoYfHgcVI4_fVxiI-336">
          <mxGeometry x="453.2083333333334" y="382.3818897637795" width="91.25000000000001" height="66.14173228346456" as="geometry" />
        </mxCell>
        <mxCell id="6N_2MoYfHgcVI4_fVxiI-404" value="" style="rounded=1;whiteSpace=wrap;html=1;fillColor=#a3cbfb;fontColor=#ffffff;strokeColor=none;fontSize=20;fontStyle=1;gradientColor=none;" vertex="1" parent="6N_2MoYfHgcVI4_fVxiI-336">
          <mxGeometry x="574.875" y="382.3818897637795" width="91.25000000000001" height="66.14173228346456" as="geometry" />
        </mxCell>
        <mxCell id="6N_2MoYfHgcVI4_fVxiI-405" value="" style="rounded=1;whiteSpace=wrap;html=1;fillColor=#75b3f9;fontColor=#ffffff;strokeColor=none;gradientColor=none;fontSize=20;fontStyle=1" vertex="1" parent="6N_2MoYfHgcVI4_fVxiI-336">
          <mxGeometry x="453.2083333333334" y="83.91732283464567" width="91.25000000000001" height="66.14173228346456" as="geometry" />
        </mxCell>
        <mxCell id="6N_2MoYfHgcVI4_fVxiI-406" value="4" style="rounded=1;whiteSpace=wrap;html=1;fillColor=#75b3f9;fontColor=#ffffff;strokeColor=none;gradientColor=none;fontSize=20;fontStyle=1" vertex="1" parent="6N_2MoYfHgcVI4_fVxiI-336">
          <mxGeometry x="574.875" y="83.91732283464567" width="91.25000000000001" height="66.14173228346456" as="geometry" />
        </mxCell>
        <mxCell id="6N_2MoYfHgcVI4_fVxiI-407" value="Index CSS" style="rounded=1;whiteSpace=wrap;html=1;fillColor=#75b3f9;fontColor=#ffffff;strokeColor=none;gradientColor=none;fontStyle=1;fontSize=20;imageWidth=59;" vertex="1" parent="6N_2MoYfHgcVI4_fVxiI-336">
          <mxGeometry x="165.77083333333334" y="183.95669291338584" width="254.73958333333337" height="66.14173228346456" as="geometry" />
        </mxCell>
        <mxCell id="6N_2MoYfHgcVI4_fVxiI-408" value="" style="rounded=1;whiteSpace=wrap;html=1;fillColor=#75b3f9;fontColor=#ffffff;strokeColor=none;gradientColor=none;fontSize=20;fontStyle=1" vertex="1" parent="6N_2MoYfHgcVI4_fVxiI-336">
          <mxGeometry x="453.2083333333334" y="183.95669291338584" width="91.25000000000001" height="66.14173228346456" as="geometry" />
        </mxCell>
        <mxCell id="6N_2MoYfHgcVI4_fVxiI-409" value="CSS Panel De Productores" style="rounded=1;whiteSpace=wrap;html=1;fillColor=#75B3F9;fontColor=#ffffff;strokeColor=none;gradientColor=none;fontSize=20;fontStyle=1;imageWidth=59;" vertex="1" parent="6N_2MoYfHgcVI4_fVxiI-336">
          <mxGeometry x="165.77083333333334" y="382.3818897637795" width="254.73958333333337" height="66.14173228346456" as="geometry" />
        </mxCell>
        <mxCell id="6N_2MoYfHgcVI4_fVxiI-410" value="" style="rounded=1;whiteSpace=wrap;html=1;fillColor=#75B3F9;fontColor=#ffffff;strokeColor=none;gradientColor=none;fontSize=20;fontStyle=1" vertex="1" parent="6N_2MoYfHgcVI4_fVxiI-336">
          <mxGeometry x="453.2083333333334" y="382.3818897637795" width="91.25000000000001" height="66.14173228346456" as="geometry" />
        </mxCell>
        <mxCell id="6N_2MoYfHgcVI4_fVxiI-411" value="4" style="rounded=1;whiteSpace=wrap;html=1;fillColor=#75B3F9;fontColor=#ffffff;strokeColor=none;gradientColor=none;fontSize=20;fontStyle=1" vertex="1" parent="6N_2MoYfHgcVI4_fVxiI-336">
          <mxGeometry x="574.875" y="382.3818897637795" width="91.25000000000001" height="66.14173228346456" as="geometry" />
        </mxCell>
        <mxCell id="6N_2MoYfHgcVI4_fVxiI-412" value="&lt;font style=&quot;font-size: 22px;&quot;&gt;NÃºmero&lt;/font&gt;" style="text;html=1;align=center;verticalAlign=middle;resizable=0;points=[];autosize=1;strokeColor=none;fillColor=none;" vertex="1" parent="6N_2MoYfHgcVI4_fVxiI-336">
          <mxGeometry x="47.90625000000001" y="31.83070866141732" width="100" height="40" as="geometry" />
        </mxCell>
        <mxCell id="6N_2MoYfHgcVI4_fVxiI-413" value="&lt;font color=&quot;#ffffff&quot;&gt;5&lt;/font&gt;" style="rounded=1;whiteSpace=wrap;html=1;fillColor=#75B3F9;fontColor=#9da6b0;strokeColor=none;gradientColor=none;fontSize=20;fontStyle=1" vertex="1" parent="6N_2MoYfHgcVI4_fVxiI-336">
          <mxGeometry x="44.864583333333336" y="480.35433070866145" width="91.25000000000001" height="66.14173228346456" as="geometry" />
        </mxCell>
        <mxCell id="6N_2MoYfHgcVI4_fVxiI-414" value="" style="rounded=1;whiteSpace=wrap;html=1;fillColor=#A3CBFB;gradientColor=none;strokeColor=#6c8ebf;fontSize=20;fontStyle=1;fontColor=#9da6b0;" vertex="1" parent="6N_2MoYfHgcVI4_fVxiI-336">
          <mxGeometry x="44.864583333333336" y="578.7401574803149" width="91.25000000000001" height="66.14173228346456" as="geometry" />
        </mxCell>
        <mxCell id="6N_2MoYfHgcVI4_fVxiI-415" value="7" style="rounded=1;whiteSpace=wrap;html=1;fillColor=#A3CBFB;gradientColor=none;strokeColor=none;fontSize=20;fontStyle=1;fontColor=#9da6b0;" vertex="1" parent="6N_2MoYfHgcVI4_fVxiI-336">
          <mxGeometry x="44.864583333333336" y="678.7795275590552" width="91.25000000000001" height="66.14173228346456" as="geometry" />
        </mxCell>
        <mxCell id="6N_2MoYfHgcVI4_fVxiI-416" value="8" style="rounded=1;whiteSpace=wrap;html=1;fillColor=#A3CBFB;gradientColor=none;strokeColor=none;fontSize=20;fontStyle=1;fontColor=#9da6b0;" vertex="1" parent="6N_2MoYfHgcVI4_fVxiI-336">
          <mxGeometry x="44.864583333333336" y="777.1653543307087" width="91.25000000000001" height="66.14173228346456" as="geometry" />
        </mxCell>
        <mxCell id="6N_2MoYfHgcVI4_fVxiI-417" value="9" style="rounded=1;whiteSpace=wrap;html=1;fillColor=#A3CBFB;strokeColor=none;gradientColor=none;fontSize=20;fontStyle=1;fontColor=#9da6b0;" vertex="1" parent="6N_2MoYfHgcVI4_fVxiI-336">
          <mxGeometry x="44.864583333333336" y="877.2047244094488" width="91.25000000000001" height="66.14173228346456" as="geometry" />
        </mxCell>
        <mxCell id="6N_2MoYfHgcVI4_fVxiI-418" value="10" style="rounded=1;whiteSpace=wrap;html=1;fillColor=#A3CBFB;strokeColor=none;gradientColor=none;fontSize=20;fontStyle=1;fontColor=#9da6b0;" vertex="1" parent="6N_2MoYfHgcVI4_fVxiI-336">
          <mxGeometry x="44.864583333333336" y="975.5905511811025" width="91.25000000000001" height="66.14173228346456" as="geometry" />
        </mxCell>
        <mxCell id="6N_2MoYfHgcVI4_fVxiI-419" value="11" style="rounded=1;whiteSpace=wrap;html=1;fillColor=#A3CBFB;strokeColor=none;gradientColor=none;fontSize=20;fontStyle=1;fontColor=#9da6b0;" vertex="1" parent="6N_2MoYfHgcVI4_fVxiI-336">
          <mxGeometry x="44.864583333333336" y="1075.6299212598424" width="91.25000000000001" height="66.14173228346456" as="geometry" />
        </mxCell>
        <mxCell id="6N_2MoYfHgcVI4_fVxiI-420" value="12" style="rounded=1;whiteSpace=wrap;html=1;fillColor=#A3CBFB;strokeColor=none;gradientColor=none;fontSize=20;fontStyle=1;fontColor=#9da6b0;" vertex="1" parent="6N_2MoYfHgcVI4_fVxiI-336">
          <mxGeometry x="44.864583333333336" y="1182.283464566929" width="91.25000000000001" height="66.14173228346456" as="geometry" />
        </mxCell>
        <mxCell id="6N_2MoYfHgcVI4_fVxiI-421" value="&lt;font color=&quot;#ffffff&quot;&gt;6&lt;/font&gt;" style="rounded=1;whiteSpace=wrap;html=1;fillColor=#75B3F9;gradientColor=none;strokeColor=none;fontSize=20;fontStyle=1;fontColor=#9da6b0;" vertex="1" parent="6N_2MoYfHgcVI4_fVxiI-336">
          <mxGeometry x="44.864583333333336" y="578.7401574803149" width="91.25000000000001" height="66.14173228346456" as="geometry" />
        </mxCell>
        <mxCell id="6N_2MoYfHgcVI4_fVxiI-422" value="13" style="rounded=1;whiteSpace=wrap;html=1;fillColor=#C7DBF4;strokeColor=none;gradientColor=none;fontSize=20;fontStyle=1;fontColor=#9da6b0;" vertex="1" parent="6N_2MoYfHgcVI4_fVxiI-336">
          <mxGeometry x="50.187500000000014" y="1288.523622047244" width="91.25000000000001" height="66.14173228346456" as="geometry" />
        </mxCell>
        <mxCell id="6N_2MoYfHgcVI4_fVxiI-423" value="14" style="rounded=1;whiteSpace=wrap;html=1;fillColor=#C7DBF4;strokeColor=none;gradientColor=none;fontSize=20;fontStyle=1;fontColor=#9da6b0;" vertex="1" parent="6N_2MoYfHgcVI4_fVxiI-336">
          <mxGeometry x="51.70833333333334" y="1380.708661417323" width="91.25000000000001" height="66.14173228346456" as="geometry" />
        </mxCell>
        <mxCell id="6N_2MoYfHgcVI4_fVxiI-424" value="17" style="rounded=1;whiteSpace=wrap;html=1;fillColor=#DEE7F4;strokeColor=none;gradientColor=none;fontSize=20;fontStyle=1;fontColor=#9da6b0;" vertex="1" parent="6N_2MoYfHgcVI4_fVxiI-336">
          <mxGeometry x="51.70833333333334" y="1661.811023622047" width="91.25000000000001" height="66.14173228346456" as="geometry" />
        </mxCell>
        <mxCell id="6N_2MoYfHgcVI4_fVxiI-425" value="18" style="rounded=1;whiteSpace=wrap;html=1;fillColor=#DEE7F4;strokeColor=none;gradientColor=none;fontSize=20;fontStyle=1;fontColor=#9da6b0;" vertex="1" parent="6N_2MoYfHgcVI4_fVxiI-336">
          <mxGeometry x="51.70833333333334" y="1752.7559055118109" width="91.25000000000001" height="66.14173228346456" as="geometry" />
        </mxCell>
        <mxCell id="6N_2MoYfHgcVI4_fVxiI-426" value="15" style="rounded=1;whiteSpace=wrap;html=1;fillColor=#C7DBF4;strokeColor=none;gradientColor=none;fontSize=20;fontStyle=1;fontColor=#9da6b0;" vertex="1" parent="6N_2MoYfHgcVI4_fVxiI-336">
          <mxGeometry x="50.187500000000014" y="1479.9212598425197" width="91.25000000000001" height="66.14173228346456" as="geometry" />
        </mxCell>
        <mxCell id="6N_2MoYfHgcVI4_fVxiI-427" value="16" style="rounded=1;whiteSpace=wrap;html=1;fillColor=#C7DBF4;strokeColor=none;gradientColor=none;fontSize=20;fontStyle=1;fontColor=#9da6b0;" vertex="1" parent="6N_2MoYfHgcVI4_fVxiI-336">
          <mxGeometry x="50.187500000000014" y="1579.1338582677165" width="91.25000000000001" height="66.14173228346456" as="geometry" />
        </mxCell>
        <mxCell id="6N_2MoYfHgcVI4_fVxiI-429" value="19" style="rounded=1;whiteSpace=wrap;html=1;fillColor=#DEE7F4;strokeColor=none;gradientColor=none;fontSize=20;fontStyle=1;fontColor=#9da6b0;" vertex="1" parent="6N_2MoYfHgcVI4_fVxiI-336">
          <mxGeometry x="53.22916666666668" y="1860.236220472441" width="91.25000000000001" height="66.14173228346456" as="geometry" />
        </mxCell>
        <mxCell id="6N_2MoYfHgcVI4_fVxiI-430" value="" style="rounded=1;whiteSpace=wrap;html=1;fillColor=#75b3f9;fontColor=#ffffff;strokeColor=none;fontSize=20;fontStyle=1" vertex="1" parent="6N_2MoYfHgcVI4_fVxiI-336">
          <mxGeometry x="43.34375000000001" y="83.91732283464567" width="91.25000000000001" height="66.14173228346456" as="geometry" />
        </mxCell>
        <mxCell id="6N_2MoYfHgcVI4_fVxiI-431" value="2" style="rounded=1;whiteSpace=wrap;html=1;fillColor=#75b3f9;fontColor=#ffffff;strokeColor=none;gradientColor=none;fontSize=20;fontStyle=1" vertex="1" parent="6N_2MoYfHgcVI4_fVxiI-336">
          <mxGeometry x="43.34375000000001" y="183.95669291338584" width="91.25000000000001" height="66.14173228346456" as="geometry" />
        </mxCell>
        <mxCell id="6N_2MoYfHgcVI4_fVxiI-432" value="3" style="rounded=1;whiteSpace=wrap;html=1;fillColor=#75b3f9;fontColor=#ffffff;strokeColor=none;gradientColor=none;fontSize=20;fontStyle=1" vertex="1" parent="6N_2MoYfHgcVI4_fVxiI-336">
          <mxGeometry x="43.34375000000001" y="282.34251968503935" width="91.25000000000001" height="66.14173228346456" as="geometry" />
        </mxCell>
        <mxCell id="6N_2MoYfHgcVI4_fVxiI-433" value="" style="rounded=1;whiteSpace=wrap;html=1;fillColor=#a3cbfb;fontColor=#ffffff;strokeColor=none;fontSize=20;fontStyle=1;gradientColor=none;" vertex="1" parent="6N_2MoYfHgcVI4_fVxiI-336">
          <mxGeometry x="43.34375000000001" y="382.3818897637795" width="91.25000000000001" height="66.14173228346456" as="geometry" />
        </mxCell>
        <mxCell id="6N_2MoYfHgcVI4_fVxiI-434" value="1" style="rounded=1;whiteSpace=wrap;html=1;fillColor=#75b3f9;fontColor=#ffffff;strokeColor=none;gradientColor=none;fontSize=20;fontStyle=1" vertex="1" parent="6N_2MoYfHgcVI4_fVxiI-336">
          <mxGeometry x="43.34375000000001" y="83.91732283464567" width="91.25000000000001" height="66.14173228346456" as="geometry" />
        </mxCell>
        <mxCell id="6N_2MoYfHgcVI4_fVxiI-435" value="4" style="rounded=1;whiteSpace=wrap;html=1;fillColor=#75B3F9;fontColor=#ffffff;strokeColor=none;gradientColor=none;fontSize=20;fontStyle=1" vertex="1" parent="6N_2MoYfHgcVI4_fVxiI-336">
          <mxGeometry x="43.34375000000001" y="382.3818897637795" width="91.25000000000001" height="66.14173228346456" as="geometry" />
        </mxCell>
        <mxCell id="6N_2MoYfHgcVI4_fVxiI-442" style="edgeStyle=elbowEdgeStyle;rounded=0;orthogonalLoop=1;jettySize=auto;html=1;exitX=1;exitY=0.5;exitDx=0;exitDy=0;" edge="1" parent="1" source="6N_2MoYfHgcVI4_fVxiI-1" target="6N_2MoYfHgcVI4_fVxiI-260">
          <mxGeometry relative="1" as="geometry" />
        </mxCell>
        <mxCell id="6N_2MoYfHgcVI4_fVxiI-452" style="edgeStyle=elbowEdgeStyle;rounded=0;orthogonalLoop=1;jettySize=auto;html=1;exitX=1;exitY=0.5;exitDx=0;exitDy=0;entryX=0;entryY=0.5;entryDx=0;entryDy=0;" edge="1" parent="1" source="6N_2MoYfHgcVI4_fVxiI-1" target="6N_2MoYfHgcVI4_fVxiI-269">
          <mxGeometry relative="1" as="geometry" />
        </mxCell>
        <mxCell id="6N_2MoYfHgcVI4_fVxiI-453" style="edgeStyle=elbowEdgeStyle;rounded=0;orthogonalLoop=1;jettySize=auto;html=1;exitX=1;exitY=0.5;exitDx=0;exitDy=0;entryX=0;entryY=0.5;entryDx=0;entryDy=0;" edge="1" parent="1" source="6N_2MoYfHgcVI4_fVxiI-1" target="6N_2MoYfHgcVI4_fVxiI-251">
          <mxGeometry relative="1" as="geometry" />
        </mxCell>
        <mxCell id="6N_2MoYfHgcVI4_fVxiI-454" style="edgeStyle=elbowEdgeStyle;rounded=0;orthogonalLoop=1;jettySize=auto;html=1;exitX=1;exitY=0;exitDx=0;exitDy=0;entryX=0;entryY=0.5;entryDx=0;entryDy=0;" edge="1" parent="1" source="6N_2MoYfHgcVI4_fVxiI-1" target="6N_2MoYfHgcVI4_fVxiI-278">
          <mxGeometry relative="1" as="geometry" />
        </mxCell>
        <mxCell id="6N_2MoYfHgcVI4_fVxiI-455" style="edgeStyle=elbowEdgeStyle;rounded=0;orthogonalLoop=1;jettySize=auto;html=1;exitX=1;exitY=0;exitDx=0;exitDy=0;entryX=0;entryY=0.5;entryDx=0;entryDy=0;" edge="1" parent="1" source="6N_2MoYfHgcVI4_fVxiI-1" target="6N_2MoYfHgcVI4_fVxiI-287">
          <mxGeometry relative="1" as="geometry" />
        </mxCell>
        <mxCell id="6N_2MoYfHgcVI4_fVxiI-456" style="edgeStyle=elbowEdgeStyle;rounded=0;orthogonalLoop=1;jettySize=auto;html=1;exitX=1;exitY=0;exitDx=0;exitDy=0;entryX=0;entryY=0.5;entryDx=0;entryDy=0;" edge="1" parent="1" source="6N_2MoYfHgcVI4_fVxiI-1" target="6N_2MoYfHgcVI4_fVxiI-62">
          <mxGeometry relative="1" as="geometry" />
        </mxCell>
        <mxCell id="6N_2MoYfHgcVI4_fVxiI-457" style="edgeStyle=elbowEdgeStyle;rounded=0;orthogonalLoop=1;jettySize=auto;html=1;exitX=1;exitY=0;exitDx=0;exitDy=0;entryX=0;entryY=0.5;entryDx=0;entryDy=0;" edge="1" parent="1" source="6N_2MoYfHgcVI4_fVxiI-1" target="6N_2MoYfHgcVI4_fVxiI-53">
          <mxGeometry relative="1" as="geometry" />
        </mxCell>
        <mxCell id="6N_2MoYfHgcVI4_fVxiI-458" style="edgeStyle=elbowEdgeStyle;rounded=0;orthogonalLoop=1;jettySize=auto;html=1;exitX=0.5;exitY=0;exitDx=0;exitDy=0;entryX=0;entryY=0.5;entryDx=0;entryDy=0;" edge="1" parent="1" source="6N_2MoYfHgcVI4_fVxiI-1" target="6N_2MoYfHgcVI4_fVxiI-41">
          <mxGeometry relative="1" as="geometry" />
        </mxCell>
        <mxCell id="6N_2MoYfHgcVI4_fVxiI-459" style="edgeStyle=elbowEdgeStyle;rounded=0;orthogonalLoop=1;jettySize=auto;html=1;exitX=0.5;exitY=0;exitDx=0;exitDy=0;entryX=0;entryY=0.5;entryDx=0;entryDy=0;" edge="1" parent="1" source="6N_2MoYfHgcVI4_fVxiI-1" target="6N_2MoYfHgcVI4_fVxiI-32">
          <mxGeometry relative="1" as="geometry" />
        </mxCell>
        <mxCell id="6N_2MoYfHgcVI4_fVxiI-460" style="edgeStyle=elbowEdgeStyle;rounded=0;orthogonalLoop=1;jettySize=auto;html=1;exitX=0.5;exitY=0;exitDx=0;exitDy=0;entryX=0;entryY=0.5;entryDx=0;entryDy=0;" edge="1" parent="1" source="6N_2MoYfHgcVI4_fVxiI-1" target="6N_2MoYfHgcVI4_fVxiI-21">
          <mxGeometry relative="1" as="geometry" />
        </mxCell>
        <mxCell id="6N_2MoYfHgcVI4_fVxiI-461" style="edgeStyle=elbowEdgeStyle;rounded=0;orthogonalLoop=1;jettySize=auto;html=1;exitX=0.5;exitY=0;exitDx=0;exitDy=0;entryX=0;entryY=0.5;entryDx=0;entryDy=0;" edge="1" parent="1" source="6N_2MoYfHgcVI4_fVxiI-1" target="6N_2MoYfHgcVI4_fVxiI-12">
          <mxGeometry relative="1" as="geometry" />
        </mxCell>
        <mxCell id="6N_2MoYfHgcVI4_fVxiI-462" style="edgeStyle=elbowEdgeStyle;rounded=0;orthogonalLoop=1;jettySize=auto;html=1;exitX=1;exitY=1;exitDx=0;exitDy=0;entryX=0;entryY=0.5;entryDx=0;entryDy=0;" edge="1" parent="1" source="6N_2MoYfHgcVI4_fVxiI-1" target="6N_2MoYfHgcVI4_fVxiI-242">
          <mxGeometry relative="1" as="geometry" />
        </mxCell>
        <mxCell id="6N_2MoYfHgcVI4_fVxiI-463" style="edgeStyle=elbowEdgeStyle;rounded=0;orthogonalLoop=1;jettySize=auto;html=1;exitX=1;exitY=1;exitDx=0;exitDy=0;entryX=0;entryY=0.5;entryDx=0;entryDy=0;" edge="1" parent="1" source="6N_2MoYfHgcVI4_fVxiI-1" target="6N_2MoYfHgcVI4_fVxiI-233">
          <mxGeometry relative="1" as="geometry" />
        </mxCell>
        <mxCell id="6N_2MoYfHgcVI4_fVxiI-464" style="edgeStyle=elbowEdgeStyle;rounded=0;orthogonalLoop=1;jettySize=auto;html=1;exitX=1;exitY=1;exitDx=0;exitDy=0;entryX=0;entryY=0.5;entryDx=0;entryDy=0;" edge="1" parent="1" source="6N_2MoYfHgcVI4_fVxiI-1" target="6N_2MoYfHgcVI4_fVxiI-224">
          <mxGeometry relative="1" as="geometry" />
        </mxCell>
        <mxCell id="6N_2MoYfHgcVI4_fVxiI-465" style="edgeStyle=elbowEdgeStyle;rounded=0;orthogonalLoop=1;jettySize=auto;html=1;exitX=1;exitY=1;exitDx=0;exitDy=0;entryX=0;entryY=0.5;entryDx=0;entryDy=0;" edge="1" parent="1" source="6N_2MoYfHgcVI4_fVxiI-1" target="6N_2MoYfHgcVI4_fVxiI-215">
          <mxGeometry relative="1" as="geometry" />
        </mxCell>
        <mxCell id="6N_2MoYfHgcVI4_fVxiI-466" style="edgeStyle=elbowEdgeStyle;rounded=0;orthogonalLoop=1;jettySize=auto;html=1;exitX=0.5;exitY=1;exitDx=0;exitDy=0;entryX=0;entryY=0.5;entryDx=0;entryDy=0;" edge="1" parent="1" source="6N_2MoYfHgcVI4_fVxiI-1" target="6N_2MoYfHgcVI4_fVxiI-206">
          <mxGeometry relative="1" as="geometry" />
        </mxCell>
        <mxCell id="6N_2MoYfHgcVI4_fVxiI-467" style="edgeStyle=elbowEdgeStyle;rounded=0;orthogonalLoop=1;jettySize=auto;html=1;exitX=0.5;exitY=1;exitDx=0;exitDy=0;entryX=0;entryY=0.5;entryDx=0;entryDy=0;" edge="1" parent="1" source="6N_2MoYfHgcVI4_fVxiI-1" target="6N_2MoYfHgcVI4_fVxiI-197">
          <mxGeometry relative="1" as="geometry" />
        </mxCell>
        <mxCell id="6N_2MoYfHgcVI4_fVxiI-468" style="edgeStyle=elbowEdgeStyle;rounded=0;orthogonalLoop=1;jettySize=auto;html=1;exitX=0.5;exitY=1;exitDx=0;exitDy=0;entryX=0;entryY=0.5;entryDx=0;entryDy=0;" edge="1" parent="1" source="6N_2MoYfHgcVI4_fVxiI-1" target="6N_2MoYfHgcVI4_fVxiI-71">
          <mxGeometry relative="1" as="geometry" />
        </mxCell>
        <mxCell id="6N_2MoYfHgcVI4_fVxiI-469" style="edgeStyle=elbowEdgeStyle;rounded=0;orthogonalLoop=1;jettySize=auto;html=1;exitX=0.5;exitY=1;exitDx=0;exitDy=0;entryX=0;entryY=0.5;entryDx=0;entryDy=0;" edge="1" parent="1" source="6N_2MoYfHgcVI4_fVxiI-1" target="6N_2MoYfHgcVI4_fVxiI-188">
          <mxGeometry relative="1" as="geometry" />
        </mxCell>
        <mxCell id="6N_2MoYfHgcVI4_fVxiI-471" value="" style="group" vertex="1" connectable="0" parent="1">
          <mxGeometry x="210" y="1500" width="132" height="150" as="geometry" />
        </mxCell>
        <mxCell id="6N_2MoYfHgcVI4_fVxiI-10" value="" style="group" vertex="1" connectable="0" parent="6N_2MoYfHgcVI4_fVxiI-471">
          <mxGeometry x="35" width="97" height="150" as="geometry" />
        </mxCell>
        <mxCell id="6N_2MoYfHgcVI4_fVxiI-1" value="INICIO" style="ellipse;whiteSpace=wrap;html=1;aspect=fixed;fillColor=#FF0000;" vertex="1" parent="6N_2MoYfHgcVI4_fVxiI-10">
          <mxGeometry x="9" width="80" height="80" as="geometry" />
        </mxCell>
        <mxCell id="6N_2MoYfHgcVI4_fVxiI-2" value="0" style="ellipse;whiteSpace=wrap;html=1;aspect=fixed;" vertex="1" parent="6N_2MoYfHgcVI4_fVxiI-10">
          <mxGeometry x="34" y="50" width="30" height="30" as="geometry" />
        </mxCell>
        <mxCell id="6N_2MoYfHgcVI4_fVxiI-3" value="" style="endArrow=none;html=1;rounded=0;" edge="1" parent="6N_2MoYfHgcVI4_fVxiI-471">
          <mxGeometry width="50" height="50" relative="1" as="geometry">
            <mxPoint x="42" y="150" as="sourcePoint" />
            <mxPoint x="42" y="80" as="targetPoint" />
          </mxGeometry>
        </mxCell>
        <mxCell id="6N_2MoYfHgcVI4_fVxiI-4" value="" style="endArrow=none;html=1;rounded=0;" edge="1" parent="6N_2MoYfHgcVI4_fVxiI-471">
          <mxGeometry width="50" height="50" relative="1" as="geometry">
            <mxPoint y="110" as="sourcePoint" />
            <mxPoint x="80" y="110" as="targetPoint" />
          </mxGeometry>
        </mxCell>
        <mxCell id="6N_2MoYfHgcVI4_fVxiI-5" value="0" style="text;html=1;align=center;verticalAlign=middle;resizable=0;points=[];autosize=1;strokeColor=none;fillColor=none;" vertex="1" parent="6N_2MoYfHgcVI4_fVxiI-471">
          <mxGeometry x="1" y="80" width="30" height="30" as="geometry" />
        </mxCell>
        <mxCell id="6N_2MoYfHgcVI4_fVxiI-6" value="0" style="text;html=1;align=center;verticalAlign=middle;resizable=0;points=[];autosize=1;strokeColor=none;fillColor=none;" vertex="1" parent="6N_2MoYfHgcVI4_fVxiI-471">
          <mxGeometry x="40" y="79" width="30" height="30" as="geometry" />
        </mxCell>
        <mxCell id="6N_2MoYfHgcVI4_fVxiI-8" value="0" style="text;html=1;align=center;verticalAlign=middle;resizable=0;points=[];autosize=1;strokeColor=none;fillColor=none;" vertex="1" parent="6N_2MoYfHgcVI4_fVxiI-471">
          <mxGeometry x="48" y="115" width="30" height="30" as="geometry" />
        </mxCell>
        <mxCell id="6N_2MoYfHgcVI4_fVxiI-9" value="0" style="text;html=1;align=center;verticalAlign=middle;resizable=0;points=[];autosize=1;strokeColor=none;fillColor=none;" vertex="1" parent="6N_2MoYfHgcVI4_fVxiI-471">
          <mxGeometry x="3" y="114" width="30" height="30" as="geometry" />
        </mxCell>
        <mxCell id="6N_2MoYfHgcVI4_fVxiI-473" value="" style="group" vertex="1" connectable="0" parent="1">
          <mxGeometry x="905" y="1500" width="97" height="150" as="geometry" />
        </mxCell>
        <mxCell id="6N_2MoYfHgcVI4_fVxiI-474" value="FINAL" style="ellipse;whiteSpace=wrap;html=1;aspect=fixed;fillColor=#FF0000;" vertex="1" parent="6N_2MoYfHgcVI4_fVxiI-473">
          <mxGeometry x="9" width="80" height="80" as="geometry" />
        </mxCell>
        <mxCell id="6N_2MoYfHgcVI4_fVxiI-475" value="0" style="ellipse;whiteSpace=wrap;html=1;aspect=fixed;" vertex="1" parent="6N_2MoYfHgcVI4_fVxiI-473">
          <mxGeometry x="34" y="50" width="30" height="30" as="geometry" />
        </mxCell>
        <mxCell id="6N_2MoYfHgcVI4_fVxiI-476" value="" style="endArrow=none;html=1;rounded=0;" edge="1" parent="1">
          <mxGeometry width="50" height="50" relative="1" as="geometry">
            <mxPoint x="1020" y="1651" as="sourcePoint" />
            <mxPoint x="1020" y="1581" as="targetPoint" />
          </mxGeometry>
        </mxCell>
        <mxCell id="6N_2MoYfHgcVI4_fVxiI-477" value="" style="endArrow=none;html=1;rounded=0;" edge="1" parent="1">
          <mxGeometry width="50" height="50" relative="1" as="geometry">
            <mxPoint x="978" y="1611" as="sourcePoint" />
            <mxPoint x="1058" y="1611" as="targetPoint" />
          </mxGeometry>
        </mxCell>
        <mxCell id="6N_2MoYfHgcVI4_fVxiI-478" value="4" style="text;html=1;align=center;verticalAlign=middle;resizable=0;points=[];autosize=1;strokeColor=none;fillColor=none;" vertex="1" parent="1">
          <mxGeometry x="979" y="1581" width="30" height="30" as="geometry" />
        </mxCell>
        <mxCell id="6N_2MoYfHgcVI4_fVxiI-479" value="4" style="text;html=1;align=center;verticalAlign=middle;resizable=0;points=[];autosize=1;strokeColor=none;fillColor=none;" vertex="1" parent="1">
          <mxGeometry x="1018" y="1580" width="30" height="30" as="geometry" />
        </mxCell>
        <mxCell id="6N_2MoYfHgcVI4_fVxiI-480" value="4" style="text;html=1;align=center;verticalAlign=middle;resizable=0;points=[];autosize=1;strokeColor=none;fillColor=none;" vertex="1" parent="1">
          <mxGeometry x="1026" y="1616" width="30" height="30" as="geometry" />
        </mxCell>
        <mxCell id="6N_2MoYfHgcVI4_fVxiI-481" value="4" style="text;html=1;align=center;verticalAlign=middle;resizable=0;points=[];autosize=1;strokeColor=none;fillColor=none;" vertex="1" parent="1">
          <mxGeometry x="981" y="1615" width="30" height="30" as="geometry" />
        </mxCell>
        <mxCell id="6N_2MoYfHgcVI4_fVxiI-482" style="edgeStyle=elbowEdgeStyle;rounded=0;orthogonalLoop=1;jettySize=auto;html=1;entryX=0.5;entryY=0;entryDx=0;entryDy=0;" edge="1" parent="1" source="6N_2MoYfHgcVI4_fVxiI-12" target="6N_2MoYfHgcVI4_fVxiI-474">
          <mxGeometry relative="1" as="geometry" />
        </mxCell>
        <mxCell id="6N_2MoYfHgcVI4_fVxiI-484" style="edgeStyle=elbowEdgeStyle;rounded=0;orthogonalLoop=1;jettySize=auto;html=1;exitX=1;exitY=0.5;exitDx=0;exitDy=0;entryX=0.5;entryY=0;entryDx=0;entryDy=0;" edge="1" parent="1" source="6N_2MoYfHgcVI4_fVxiI-21" target="6N_2MoYfHgcVI4_fVxiI-474">
          <mxGeometry relative="1" as="geometry" />
        </mxCell>
        <mxCell id="6N_2MoYfHgcVI4_fVxiI-485" style="edgeStyle=elbowEdgeStyle;rounded=0;orthogonalLoop=1;jettySize=auto;html=1;exitX=1;exitY=0.5;exitDx=0;exitDy=0;entryX=0.5;entryY=0;entryDx=0;entryDy=0;" edge="1" parent="1" source="6N_2MoYfHgcVI4_fVxiI-32" target="6N_2MoYfHgcVI4_fVxiI-474">
          <mxGeometry relative="1" as="geometry" />
        </mxCell>
        <mxCell id="6N_2MoYfHgcVI4_fVxiI-487" style="edgeStyle=elbowEdgeStyle;rounded=0;orthogonalLoop=1;jettySize=auto;html=1;exitX=1;exitY=0.5;exitDx=0;exitDy=0;entryX=0;entryY=0;entryDx=0;entryDy=0;" edge="1" parent="1" source="6N_2MoYfHgcVI4_fVxiI-53" target="6N_2MoYfHgcVI4_fVxiI-474">
          <mxGeometry relative="1" as="geometry" />
        </mxCell>
        <mxCell id="6N_2MoYfHgcVI4_fVxiI-488" style="edgeStyle=elbowEdgeStyle;rounded=0;orthogonalLoop=1;jettySize=auto;html=1;exitX=1;exitY=0.5;exitDx=0;exitDy=0;entryX=0;entryY=0;entryDx=0;entryDy=0;" edge="1" parent="1" source="6N_2MoYfHgcVI4_fVxiI-62" target="6N_2MoYfHgcVI4_fVxiI-474">
          <mxGeometry relative="1" as="geometry" />
        </mxCell>
        <mxCell id="6N_2MoYfHgcVI4_fVxiI-489" style="edgeStyle=elbowEdgeStyle;rounded=0;orthogonalLoop=1;jettySize=auto;html=1;exitX=1;exitY=0.5;exitDx=0;exitDy=0;" edge="1" parent="1" source="6N_2MoYfHgcVI4_fVxiI-287" target="6N_2MoYfHgcVI4_fVxiI-474">
          <mxGeometry relative="1" as="geometry" />
        </mxCell>
        <mxCell id="6N_2MoYfHgcVI4_fVxiI-490" style="edgeStyle=elbowEdgeStyle;rounded=0;orthogonalLoop=1;jettySize=auto;html=1;exitX=1;exitY=0.5;exitDx=0;exitDy=0;entryX=0;entryY=0;entryDx=0;entryDy=0;" edge="1" parent="1" source="6N_2MoYfHgcVI4_fVxiI-278" target="6N_2MoYfHgcVI4_fVxiI-474">
          <mxGeometry relative="1" as="geometry" />
        </mxCell>
        <mxCell id="6N_2MoYfHgcVI4_fVxiI-491" style="edgeStyle=elbowEdgeStyle;rounded=0;orthogonalLoop=1;jettySize=auto;html=1;exitX=1;exitY=0.5;exitDx=0;exitDy=0;entryX=0;entryY=0.5;entryDx=0;entryDy=0;" edge="1" parent="1" source="6N_2MoYfHgcVI4_fVxiI-269" target="6N_2MoYfHgcVI4_fVxiI-474">
          <mxGeometry relative="1" as="geometry" />
        </mxCell>
        <mxCell id="6N_2MoYfHgcVI4_fVxiI-492" style="edgeStyle=elbowEdgeStyle;rounded=0;orthogonalLoop=1;jettySize=auto;html=1;exitX=1;exitY=0.5;exitDx=0;exitDy=0;" edge="1" parent="1" source="6N_2MoYfHgcVI4_fVxiI-260" target="6N_2MoYfHgcVI4_fVxiI-474">
          <mxGeometry relative="1" as="geometry" />
        </mxCell>
        <mxCell id="6N_2MoYfHgcVI4_fVxiI-493" style="edgeStyle=elbowEdgeStyle;rounded=0;orthogonalLoop=1;jettySize=auto;html=1;exitX=1;exitY=0.5;exitDx=0;exitDy=0;entryX=0;entryY=0.5;entryDx=0;entryDy=0;" edge="1" parent="1" source="6N_2MoYfHgcVI4_fVxiI-251" target="6N_2MoYfHgcVI4_fVxiI-474">
          <mxGeometry relative="1" as="geometry" />
        </mxCell>
        <mxCell id="6N_2MoYfHgcVI4_fVxiI-494" style="edgeStyle=elbowEdgeStyle;rounded=0;orthogonalLoop=1;jettySize=auto;html=1;exitX=1;exitY=0.5;exitDx=0;exitDy=0;entryX=0;entryY=1;entryDx=0;entryDy=0;" edge="1" parent="1" source="6N_2MoYfHgcVI4_fVxiI-242" target="6N_2MoYfHgcVI4_fVxiI-474">
          <mxGeometry relative="1" as="geometry" />
        </mxCell>
        <mxCell id="6N_2MoYfHgcVI4_fVxiI-495" style="edgeStyle=elbowEdgeStyle;rounded=0;orthogonalLoop=1;jettySize=auto;html=1;exitX=1;exitY=0.5;exitDx=0;exitDy=0;entryX=0;entryY=1;entryDx=0;entryDy=0;" edge="1" parent="1" source="6N_2MoYfHgcVI4_fVxiI-233" target="6N_2MoYfHgcVI4_fVxiI-474">
          <mxGeometry relative="1" as="geometry" />
        </mxCell>
        <mxCell id="6N_2MoYfHgcVI4_fVxiI-496" style="edgeStyle=elbowEdgeStyle;rounded=0;orthogonalLoop=1;jettySize=auto;html=1;exitX=1;exitY=0.5;exitDx=0;exitDy=0;entryX=0;entryY=1;entryDx=0;entryDy=0;" edge="1" parent="1" source="6N_2MoYfHgcVI4_fVxiI-224" target="6N_2MoYfHgcVI4_fVxiI-474">
          <mxGeometry relative="1" as="geometry" />
        </mxCell>
        <mxCell id="6N_2MoYfHgcVI4_fVxiI-497" style="edgeStyle=elbowEdgeStyle;rounded=0;orthogonalLoop=1;jettySize=auto;html=1;entryX=0;entryY=1;entryDx=0;entryDy=0;" edge="1" parent="1" source="6N_2MoYfHgcVI4_fVxiI-215" target="6N_2MoYfHgcVI4_fVxiI-474">
          <mxGeometry relative="1" as="geometry">
            <mxPoint x="930" y="1570" as="targetPoint" />
          </mxGeometry>
        </mxCell>
        <mxCell id="6N_2MoYfHgcVI4_fVxiI-499" style="edgeStyle=elbowEdgeStyle;rounded=0;orthogonalLoop=1;jettySize=auto;html=1;entryX=0.5;entryY=1;entryDx=0;entryDy=0;" edge="1" parent="1" source="6N_2MoYfHgcVI4_fVxiI-206" target="6N_2MoYfHgcVI4_fVxiI-475">
          <mxGeometry relative="1" as="geometry" />
        </mxCell>
        <mxCell id="6N_2MoYfHgcVI4_fVxiI-500" style="edgeStyle=elbowEdgeStyle;rounded=0;orthogonalLoop=1;jettySize=auto;html=1;exitX=1;exitY=0.5;exitDx=0;exitDy=0;entryX=0.5;entryY=1;entryDx=0;entryDy=0;" edge="1" parent="1" source="6N_2MoYfHgcVI4_fVxiI-197" target="6N_2MoYfHgcVI4_fVxiI-475">
          <mxGeometry relative="1" as="geometry" />
        </mxCell>
        <mxCell id="6N_2MoYfHgcVI4_fVxiI-501" style="edgeStyle=elbowEdgeStyle;rounded=0;orthogonalLoop=1;jettySize=auto;html=1;exitX=1;exitY=0.5;exitDx=0;exitDy=0;" edge="1" parent="1" source="6N_2MoYfHgcVI4_fVxiI-71" target="6N_2MoYfHgcVI4_fVxiI-475">
          <mxGeometry relative="1" as="geometry" />
        </mxCell>
        <mxCell id="6N_2MoYfHgcVI4_fVxiI-502" style="edgeStyle=elbowEdgeStyle;rounded=0;orthogonalLoop=1;jettySize=auto;html=1;exitX=1;exitY=0.5;exitDx=0;exitDy=0;" edge="1" parent="1" source="6N_2MoYfHgcVI4_fVxiI-188" target="6N_2MoYfHgcVI4_fVxiI-475">
          <mxGeometry relative="1" as="geometry" />
        </mxCell>
        <mxCell id="6N_2MoYfHgcVI4_fVxiI-506" style="edgeStyle=elbowEdgeStyle;rounded=0;orthogonalLoop=1;jettySize=auto;html=1;exitX=1;exitY=0.5;exitDx=0;exitDy=0;" edge="1" parent="1" source="6N_2MoYfHgcVI4_fVxiI-12" target="6N_2MoYfHgcVI4_fVxiI-474">
          <mxGeometry relative="1" as="geometry" />
        </mxCell>
        <mxCell id="6N_2MoYfHgcVI4_fVxiI-507" value="H = 0" style="text;html=1;align=center;verticalAlign=middle;resizable=0;points=[];autosize=1;strokeColor=none;fillColor=none;" vertex="1" parent="1">
          <mxGeometry x="640" y="120" width="50" height="30" as="geometry" />
        </mxCell>
        <mxCell id="6N_2MoYfHgcVI4_fVxiI-508" value="H = 0" style="text;html=1;align=center;verticalAlign=middle;resizable=0;points=[];autosize=1;strokeColor=none;fillColor=none;" vertex="1" parent="1">
          <mxGeometry x="655" y="268" width="50" height="30" as="geometry" />
        </mxCell>
        <mxCell id="6N_2MoYfHgcVI4_fVxiI-509" value="H = 1" style="text;html=1;align=center;verticalAlign=middle;resizable=0;points=[];autosize=1;strokeColor=none;fillColor=none;" vertex="1" parent="1">
          <mxGeometry x="655" y="420" width="50" height="30" as="geometry" />
        </mxCell>
        <mxCell id="6N_2MoYfHgcVI4_fVxiI-510" value="H = 0" style="text;html=1;align=center;verticalAlign=middle;resizable=0;points=[];autosize=1;strokeColor=none;fillColor=none;" vertex="1" parent="1">
          <mxGeometry x="670" y="585" width="50" height="30" as="geometry" />
        </mxCell>
        <mxCell id="6N_2MoYfHgcVI4_fVxiI-511" value="H = 0" style="text;html=1;align=center;verticalAlign=middle;resizable=0;points=[];autosize=1;strokeColor=none;fillColor=none;" vertex="1" parent="1">
          <mxGeometry x="670" y="920" width="50" height="30" as="geometry" />
        </mxCell>
        <mxCell id="6N_2MoYfHgcVI4_fVxiI-512" value="H = 0" style="text;html=1;align=center;verticalAlign=middle;resizable=0;points=[];autosize=1;strokeColor=none;fillColor=none;" vertex="1" parent="1">
          <mxGeometry x="670" y="1250" width="50" height="30" as="geometry" />
        </mxCell>
        <mxCell id="6N_2MoYfHgcVI4_fVxiI-513" value="H = 0" style="text;html=1;align=center;verticalAlign=middle;resizable=0;points=[];autosize=1;strokeColor=none;fillColor=none;" vertex="1" parent="1">
          <mxGeometry x="670" y="1430" width="50" height="30" as="geometry" />
        </mxCell>
        <mxCell id="6N_2MoYfHgcVI4_fVxiI-514" value="H = 0" style="text;html=1;align=center;verticalAlign=middle;resizable=0;points=[];autosize=1;strokeColor=none;fillColor=none;" vertex="1" parent="1">
          <mxGeometry x="670" y="1581" width="50" height="30" as="geometry" />
        </mxCell>
        <mxCell id="6N_2MoYfHgcVI4_fVxiI-515" value="H = 0" style="text;html=1;align=center;verticalAlign=middle;resizable=0;points=[];autosize=1;strokeColor=none;fillColor=none;" vertex="1" parent="1">
          <mxGeometry x="670" y="1760" width="50" height="30" as="geometry" />
        </mxCell>
        <mxCell id="6N_2MoYfHgcVI4_fVxiI-516" value="H = 0" style="text;html=1;align=center;verticalAlign=middle;resizable=0;points=[];autosize=1;strokeColor=none;fillColor=none;" vertex="1" parent="1">
          <mxGeometry x="670" y="2080" width="50" height="30" as="geometry" />
        </mxCell>
        <mxCell id="6N_2MoYfHgcVI4_fVxiI-517" value="H = 0" style="text;html=1;align=center;verticalAlign=middle;resizable=0;points=[];autosize=1;strokeColor=none;fillColor=none;" vertex="1" parent="1">
          <mxGeometry x="670" y="2240" width="50" height="30" as="geometry" />
        </mxCell>
        <mxCell id="6N_2MoYfHgcVI4_fVxiI-518" value="H = 0" style="text;html=1;align=center;verticalAlign=middle;resizable=0;points=[];autosize=1;strokeColor=none;fillColor=none;" vertex="1" parent="1">
          <mxGeometry x="670" y="3050" width="50" height="30" as="geometry" />
        </mxCell>
        <mxCell id="6N_2MoYfHgcVI4_fVxiI-519" value="H = 1" style="text;html=1;align=center;verticalAlign=middle;resizable=0;points=[];autosize=1;strokeColor=none;fillColor=none;" vertex="1" parent="1">
          <mxGeometry x="655" y="2893" width="50" height="30" as="geometry" />
        </mxCell>
        <mxCell id="6N_2MoYfHgcVI4_fVxiI-520" value="H = 1" style="text;html=1;align=center;verticalAlign=middle;resizable=0;points=[];autosize=1;strokeColor=none;fillColor=none;" vertex="1" parent="1">
          <mxGeometry x="670" y="2740" width="50" height="30" as="geometry" />
        </mxCell>
        <mxCell id="6N_2MoYfHgcVI4_fVxiI-521" value="H = 1" style="text;html=1;align=center;verticalAlign=middle;resizable=0;points=[];autosize=1;strokeColor=none;fillColor=none;" vertex="1" parent="1">
          <mxGeometry x="655" y="2570" width="50" height="30" as="geometry" />
        </mxCell>
        <mxCell id="6N_2MoYfHgcVI4_fVxiI-522" value="H = 1" style="text;html=1;align=center;verticalAlign=middle;resizable=0;points=[];autosize=1;strokeColor=none;fillColor=none;" vertex="1" parent="1">
          <mxGeometry x="670" y="2410" width="50" height="30" as="geometry" />
        </mxCell>
        <mxCell id="6N_2MoYfHgcVI4_fVxiI-523" value="H = 1" style="text;html=1;align=center;verticalAlign=middle;resizable=0;points=[];autosize=1;strokeColor=none;fillColor=none;" vertex="1" parent="1">
          <mxGeometry x="670" y="1930" width="50" height="30" as="geometry" />
        </mxCell>
        <mxCell id="6N_2MoYfHgcVI4_fVxiI-524" value="H = 1" style="text;html=1;align=center;verticalAlign=middle;resizable=0;points=[];autosize=1;strokeColor=none;fillColor=none;" vertex="1" parent="1">
          <mxGeometry x="680" y="1110" width="50" height="30" as="geometry" />
        </mxCell>
        <mxCell id="6N_2MoYfHgcVI4_fVxiI-525" value="H = 1" style="text;html=1;align=center;verticalAlign=middle;resizable=0;points=[];autosize=1;strokeColor=none;fillColor=none;" vertex="1" parent="1">
          <mxGeometry x="670" y="760" width="50" height="30" as="geometry" />
        </mxCell>
      </root>
    </mxGraphModel>
  </diagram>
</mxfile>
